<svg width="1099" height="460" viewBox="0 0 1099 460" fill="none" xmlns="http://www.w3.org/2000/svg">
<path d="M22.4358 283.578C19.363 274.766 16.4484 269.094 13.6693 266.609C10.8903 264.123 6.3263 262.858 0 262.858V254.52H77.0905V262.858C70.9449 262.858 67.3525 263.965 66.3132 266.157C65.2512 268.371 65.9743 273.772 68.4596 282.403L117.375 427.696C119.093 432.69 120.719 436.508 122.256 439.197C120.335 433.819 119.273 427.402 119.093 419.923C118.889 412.828 120.471 404.106 123.837 393.734C127.181 383.385 130.638 372.019 134.185 359.637C137.733 347.254 139.518 335.142 139.518 323.234C139.518 315.755 138.749 308.954 137.213 302.808C135.677 296.661 133.711 291.577 131.316 287.555C128.921 283.533 126.277 279.94 123.408 276.777C120.539 273.613 117.647 271.218 114.777 269.591C111.908 267.964 109.264 266.631 106.869 265.569C104.474 264.507 102.509 263.897 100.972 263.694L98.6903 263.129V254.497H167.421C167.421 254.701 167.511 254.881 167.715 255.062C167.895 255.265 168.234 255.83 168.709 256.779C169.183 257.751 169.68 258.7 170.155 259.649C170.629 260.598 171.217 261.864 171.872 263.4C172.527 264.937 173.16 266.518 173.747 268.145C174.312 269.772 174.9 271.648 175.464 273.749C176.029 275.85 176.549 277.974 177.046 280.076C177.52 282.177 177.859 284.527 178.063 287.126C178.243 289.724 178.334 292.346 178.334 295.034C178.334 304.999 176.662 314.942 173.295 324.816C169.929 334.691 165.862 343.661 161.072 351.705C156.26 359.772 151.47 367.726 146.68 375.589C141.867 383.453 137.8 391.746 134.456 400.468C131.09 409.19 129.418 417.776 129.418 426.227C129.418 430.633 130.231 434.61 131.858 438.158C133.485 441.705 135.157 444.146 136.897 445.502L139.201 447.219V455.557H102.102C95.5949 455.557 89.6753 453.681 84.4109 449.953C79.1239 446.202 75.4411 441.276 73.3399 435.13L22.4358 283.511V283.578Z" fill="black"/>
<path d="M227.251 374.504C251.02 374.504 262.927 364.54 262.927 344.587C262.927 335.391 260.961 327.369 257.03 320.568C253.099 313.766 247.97 310.354 241.643 310.354C237.034 310.354 233.013 313.043 229.556 318.421C226.099 323.799 223.614 330.126 222.077 337.402C220.541 344.7 219.773 352.18 219.773 359.84C219.773 363.093 219.953 366.641 220.337 370.482C220.722 374.324 221.399 379.114 222.348 384.876C223.297 390.638 224.924 396.061 227.229 401.123C229.533 406.207 232.312 411.042 235.566 415.652C238.819 420.261 243.18 423.945 248.648 426.724C254.115 429.503 260.306 430.904 267.197 430.904C271.422 430.904 276.122 429.503 281.296 426.724C286.47 423.945 290.604 421.211 293.677 418.522L298.558 414.499L305.471 418.522C304.906 419.674 304.138 421.165 303.167 422.973C302.195 424.803 300.004 428.057 296.547 432.757C293.09 437.457 289.362 441.637 285.34 445.275C281.318 448.913 275.941 452.235 269.231 455.195C262.52 458.155 255.607 459.646 248.512 459.646C228.178 459.646 212.158 451.873 200.477 436.35C188.774 420.826 182.922 401.349 182.922 377.962C182.922 363.184 185.949 349.536 191.982 336.972C198.015 324.409 206.307 314.489 216.858 307.191C227.409 299.915 238.91 296.254 251.381 296.254C260.781 296.254 269.321 298.469 276.98 302.875C284.64 307.281 290.785 312.953 295.394 319.845C300.004 326.759 303.551 333.99 306.036 341.559C308.521 349.129 309.764 356.473 309.764 363.568L309.199 381.984L227.229 382.278V374.504H227.251Z" fill="black"/>
<path d="M380.574 455.624H318.712V447.286C324.857 447.286 328.924 446.089 330.935 443.694C332.946 441.298 333.963 435.695 333.963 426.86V325.313C333.963 316.5 332.969 310.829 330.935 308.343C328.924 305.858 324.857 304.592 318.712 304.592V296.254H380.574V360.992C381.907 356.789 383.308 352.699 384.754 348.768C386.177 344.836 388.008 340.656 390.222 336.249C392.413 331.843 394.763 327.776 397.271 324.025C399.779 320.274 402.694 316.681 406.06 313.247C409.404 309.789 412.906 306.829 416.566 304.321C420.204 301.836 424.384 299.87 429.083 298.424C433.783 296.977 438.618 296.254 443.611 296.254C446.865 296.254 449.757 296.458 452.242 296.819C454.727 297.203 456.445 297.588 457.416 297.972L458.862 298.537V342.26C458.862 348.971 456.264 355.298 451.09 361.241C445.916 367.183 439.522 372.471 431.953 377.058C424.384 381.667 416.747 386.254 409.088 390.864C401.406 395.474 394.853 400.897 389.386 407.111C383.918 413.324 381.003 420.013 380.619 427.108V427.673C380.619 436.124 381.613 441.479 383.647 443.784C385.658 446.089 389.725 447.241 395.87 447.241V455.579H380.619L380.574 455.624ZM380.574 394.05V410.455C382.675 406.049 387.285 400.919 394.379 395.067C401.474 389.215 408.568 384.04 415.662 379.521C422.757 375.024 429.174 369.985 434.935 364.427C440.697 358.868 443.566 353.784 443.566 349.174C443.566 339.774 437.805 335.074 426.304 335.074C419.594 335.074 412.725 338.328 405.744 344.858C398.74 351.389 392.933 359.252 388.346 368.449C383.737 377.668 381.162 386.187 380.574 394.05Z" fill="black"/>
<path d="M464.849 447.287C470.995 447.287 475.062 446.044 477.072 443.536C479.083 441.05 480.1 435.379 480.1 426.566V268.914C480.1 260.101 479.106 254.43 477.072 251.944C475.062 249.458 470.995 248.193 464.849 248.193V239.855H526.711V333.651C536.291 308.728 552.22 296.255 574.452 296.255C584.8 296.255 593.725 300.277 601.203 308.344C608.682 316.41 614.105 326.466 617.471 338.555C620.815 350.644 622.51 363.772 622.51 377.962C622.51 392.152 620.838 405.281 617.471 417.37C614.105 429.458 608.682 439.514 601.203 447.581C593.725 455.647 584.823 459.669 574.452 459.669C552.197 459.669 536.291 447.196 526.711 422.273V429.458C526.711 436.757 524.158 442.926 519.075 448.01C513.991 453.094 507.891 455.625 500.819 455.625H464.872V447.287H464.849ZM526.711 368.743V387.159C526.892 387.724 527.05 388.65 527.141 389.893C527.231 391.136 527.615 393.486 528.293 396.943C528.971 400.4 529.739 403.699 530.597 406.862C531.456 410.026 532.608 413.528 534.054 417.37C535.5 421.211 536.969 424.51 538.505 427.289C540.042 430.069 542.007 432.419 544.402 434.339C546.797 436.26 549.237 437.209 551.745 437.209C554.434 437.209 557.078 436.192 559.653 434.181C562.229 432.17 564.782 429.007 567.267 424.691C569.753 420.375 571.764 414.184 573.3 406.139C574.836 398.073 575.605 388.695 575.605 377.94C575.605 367.184 574.836 357.806 573.3 349.74C571.764 341.673 569.753 335.504 567.267 331.188C564.782 326.872 562.229 323.709 559.653 321.698C557.055 319.687 554.411 318.67 551.745 318.67C548.288 318.67 545.035 320.387 541.962 323.845C538.889 327.302 536.494 331.459 534.777 336.363C533.06 341.244 531.501 346.147 530.168 351.028C528.835 355.908 527.954 360.089 527.592 363.546L526.734 368.72L526.711 368.743Z" fill="black"/>
<path d="M682.315 374.504C706.083 374.504 717.99 364.54 717.99 344.587C717.99 335.391 716.025 327.369 712.093 320.568C708.162 313.766 703.033 310.354 696.707 310.354C692.098 310.354 688.076 313.043 684.619 318.421C681.162 323.799 678.677 330.126 677.141 337.402C675.604 344.7 674.836 352.18 674.836 359.84C674.836 363.093 675.017 366.641 675.401 370.482C675.785 374.324 676.463 379.114 677.412 384.876C678.361 390.638 679.987 396.061 682.292 401.123C684.597 406.207 687.376 411.042 690.629 415.652C693.883 420.261 698.243 423.945 703.711 426.724C709.179 429.503 715.37 430.904 722.261 430.904C726.486 430.904 731.185 429.503 736.359 426.724C741.533 423.945 745.668 421.211 748.741 418.522L753.621 414.499L760.535 418.522C759.97 419.674 759.202 421.165 758.23 422.973C757.259 424.803 755.067 428.057 751.61 432.757C748.153 437.457 744.425 441.637 740.404 445.275C736.382 448.913 731.005 452.235 724.294 455.195C717.584 458.155 710.67 459.646 703.576 459.646C683.241 459.646 667.222 451.873 655.541 436.35C643.837 420.826 637.985 401.349 637.985 377.962C637.985 363.184 641.013 349.536 647.045 336.972C653.078 324.409 661.37 314.489 671.921 307.191C682.473 299.915 693.973 296.254 706.445 296.254C715.844 296.254 724.384 298.469 732.044 302.875C739.703 307.281 745.849 312.953 750.458 319.845C755.067 326.759 758.614 333.99 761.1 341.559C763.585 349.129 764.828 356.473 764.828 363.568L764.263 381.984L682.292 382.278V374.504H682.315Z" fill="black"/>
<path d="M869.009 326.172C864.016 326.172 859.655 329.087 855.927 334.939C852.199 340.791 849.465 347.457 847.725 354.936C845.986 362.416 845.127 369.421 845.127 375.928C845.127 384.379 846.189 392.13 848.29 399.225C850.391 406.32 852.651 411.788 855.046 415.629C857.441 419.471 859.7 423.402 861.801 427.425C863.903 431.447 864.964 434.994 864.964 438.067C864.964 441.705 864.061 444.936 862.231 447.693C860.401 450.473 858.209 452.484 855.611 453.726C853.035 454.969 850.482 455.602 847.997 455.602H773.775V447.264C779.921 447.264 783.988 446.021 785.999 443.513C788.01 441.027 789.026 435.469 789.026 426.837V325.29C789.026 316.478 788.032 310.806 785.999 308.321C783.988 305.835 779.921 304.57 773.775 304.57V296.232H835.638V421.369C835.638 439.965 839.84 449.275 848.29 449.275C850.775 449.275 852.741 448.213 854.187 446.111C855.611 444.01 856.334 441.276 856.334 437.909C856.334 434.542 855.475 430.859 853.735 426.837C851.996 422.815 850.098 419.019 847.974 415.471C845.85 411.924 843.952 406.659 842.212 399.654C840.495 392.649 839.614 384.741 839.614 375.928C839.614 366.528 840.563 357.332 842.484 348.316C844.404 339.3 847.228 330.826 850.956 322.85C854.707 314.896 859.926 308.456 866.637 303.576C873.347 298.695 881.029 296.232 889.66 296.232C894.834 296.232 899.352 297.045 903.171 298.672C906.989 300.299 909.972 302.265 912.095 304.57C914.197 306.875 915.846 309.948 916.976 313.789C918.128 317.63 918.851 321.223 919.145 324.567C919.438 327.934 919.574 331.911 919.574 336.498V427.402C919.574 435.853 920.568 441.253 922.602 443.649C924.612 446.044 928.792 447.241 935.119 447.241V455.579H893.704C888.146 455.579 883.288 453.568 879.176 449.546C875.064 445.524 872.985 440.621 872.985 434.881V343.39C872.985 342.622 873.03 341.085 873.143 338.78C873.234 336.475 873.279 334.849 873.279 333.9C873.279 332.95 873.144 331.708 872.85 330.149C872.556 328.612 872.082 327.55 871.404 326.985C870.726 326.42 869.913 326.126 868.964 326.126L869.009 326.172Z" fill="black"/>
<path d="M1098 447.286V455.624H1020.91V447.286C1027.03 447.286 1031.12 446.089 1033.13 443.694C1035.14 441.299 1036.16 435.695 1036.16 426.86L1035.86 358.687C1035.86 337.402 1033.18 323.686 1027.8 317.54C1031.44 332.883 1033.27 346.779 1033.27 359.252C1033.27 365.579 1032.7 372.765 1031.55 380.832C1030.4 388.898 1028.34 397.62 1025.36 407.02C1022.38 416.42 1018.74 424.962 1014.42 432.622C1010.11 440.304 1004.39 446.722 997.297 451.896C990.202 457.071 982.339 459.669 973.709 459.669C964.106 459.669 956.876 456.302 951.996 449.591C947.093 442.88 944.653 433.955 944.653 422.838C944.653 417.076 945.896 411.585 948.404 406.297C950.889 401.032 954.165 396.219 958.187 391.904C962.208 387.588 966.682 383.362 971.562 379.25C976.443 375.137 981.3 371.002 986.09 366.89C990.88 362.777 995.308 358.597 999.33 354.372C1003.35 350.169 1006.61 345.356 1009.11 339.978C1011.6 334.623 1012.86 328.951 1012.86 323.008C1012.86 319.37 1011.51 315.913 1008.84 312.659C1002.9 313.631 997.568 316.162 992.868 320.274C988.169 324.409 984.576 328.996 982.091 334.08C979.606 339.164 977.482 344.158 975.765 349.039C974.048 353.92 972.895 358.01 972.308 361.263L971.449 366.438H963.677V316.094C964.061 315.529 964.626 314.806 965.394 313.925C966.162 313.066 967.992 311.484 970.862 309.179C973.731 306.875 976.94 304.864 980.487 303.146C984.034 301.429 988.824 299.847 994.879 298.401C1000.91 296.955 1007.4 296.232 1014.29 296.232C1025.58 296.232 1035.57 298.062 1044.2 301.7C1052.83 305.338 1059.5 309.767 1064.2 314.941C1068.9 320.116 1072.74 326.059 1075.7 332.77C1078.66 339.481 1080.58 345.378 1081.46 350.462C1082.32 355.547 1082.75 360.292 1082.75 364.698V427.696C1082.75 436.147 1083.74 441.502 1085.77 443.807C1087.79 446.111 1091.85 447.264 1098 447.264V447.286ZM1000.19 403.541C1005.36 403.541 1010.15 400.332 1014.58 393.892C1018.99 387.475 1022.15 380.651 1024.07 373.465C1025.99 366.28 1026.94 360.292 1026.94 355.479C1026.94 334.962 1024.93 320.862 1020.91 313.179C1018.99 312.411 1016.89 312.027 1014.58 312.027C1017.65 315.665 1019.19 320.568 1019.19 326.691C1019.19 334.555 1017.74 342.328 1014.87 349.988C1012.01 357.671 1008.84 363.952 1005.39 368.833C1001.93 373.714 998.81 378.572 996.031 383.362C993.252 388.153 991.852 391.904 991.852 394.593C991.852 396.897 992.529 398.954 993.862 400.784C995.196 402.614 997.319 403.518 1000.19 403.518V403.541Z" fill="black"/>
<path d="M846.792 97.5019C846.792 114.607 855.061 127.487 855.061 127.487C856.055 129.927 860.981 137.971 864.528 142.852C868.075 147.733 872.73 151.778 878.469 154.941C884.23 158.105 890.443 159.686 897.176 159.686C902.35 159.686 906.914 158.669 910.846 156.658C914.777 154.647 917.759 152.388 919.77 149.902C921.781 147.417 923.408 144.479 924.651 141.135C925.893 137.791 926.661 135.418 926.955 134.085C927.249 132.752 927.384 131.599 927.384 130.628V130.334H935.157V201.105H784.998V192.767C791.143 192.767 795.21 191.569 797.221 189.174C799.232 186.779 800.248 181.085 800.248 172.046V29.0585C800.248 20.2461 799.254 14.5744 797.221 12.0889C795.21 9.60332 791.143 8.33794 784.998 8.33794V0H862.088V8.33794C855.942 8.33794 851.876 9.53553 849.865 11.9307C847.854 14.3259 846.837 19.6586 846.837 27.9061V80.5549M846.837 128.029V173.492C846.837 178.667 848.667 183.073 852.305 186.734C855.942 190.372 860.371 192.202 865.545 192.202H882.807C887.981 192.202 892.816 191.185 897.335 189.174C901.831 187.163 905.581 184.632 908.564 181.559C911.524 178.486 914.167 174.848 916.472 170.623C918.776 166.397 920.538 162.42 921.781 158.692C923.024 154.964 924.131 151.077 925.102 147.032C920.493 159.505 911.298 165.742 897.493 165.742C885.608 165.742 875.147 162.533 866.132 156.116C857.117 149.699 850.701 140.344 846.86 128.074" fill="black"/>
<path d="M1098.13 192.767V201.105H1021.04V192.767C1027.18 192.767 1031.25 191.569 1033.26 189.174C1035.27 186.779 1036.29 181.175 1036.29 172.34L1035.99 104.168C1035.99 82.8821 1033.3 69.1663 1027.93 63.0202C1031.57 78.3629 1033.4 92.2595 1033.4 104.733C1033.4 111.059 1032.83 118.245 1031.68 126.312C1030.53 134.379 1028.47 143.101 1025.49 152.501C1022.5 161.901 1018.87 170.442 1014.55 178.102C1010.24 185.785 1004.52 192.202 997.426 197.376C990.331 202.551 982.468 205.149 973.838 205.149C964.258 205.149 957.005 201.783 952.125 195.071C947.244 188.36 944.782 179.435 944.782 168.318C944.782 162.556 946.024 157.065 948.532 151.777C951.018 146.513 954.294 141.7 958.315 137.384C962.337 133.068 966.788 128.842 971.691 124.73C976.571 120.618 981.429 116.482 986.219 112.37C991.009 108.257 995.415 104.077 999.459 99.8518C1003.48 95.6489 1006.73 90.836 1009.24 85.4581C1011.73 80.1028 1012.99 74.4312 1012.99 68.4885C1012.99 64.8505 1011.64 61.3933 1008.97 58.1395C1003.03 59.1111 997.697 61.6419 992.997 65.7543C988.298 69.8894 984.705 74.4764 982.22 79.5605C979.735 84.6446 977.611 89.6384 975.894 94.5191C974.176 99.3999 973.024 103.49 972.437 106.744L971.578 111.918H963.806V61.5741C964.19 61.0092 964.755 60.2861 965.523 59.4049C966.291 58.5462 968.121 56.9645 970.991 54.6597C973.86 52.3549 977.068 50.3438 980.638 48.6265C984.186 46.9092 988.975 45.3275 995.031 43.8814C1001.06 42.4352 1007.55 41.7122 1014.44 41.7122C1025.76 41.7122 1035.72 43.5424 1044.35 47.1804C1052.98 50.8184 1059.65 55.2472 1064.35 60.4217C1069.05 65.5962 1072.89 71.5389 1075.85 78.25C1078.81 84.961 1080.73 90.8586 1081.61 95.9427C1082.47 101.027 1082.9 105.772 1082.9 110.178V173.176C1082.9 181.627 1083.92 186.982 1085.93 189.287C1087.94 191.592 1092 192.744 1098.15 192.744L1098.13 192.767ZM1000.32 149.021C1005.49 149.021 1010.28 145.812 1014.71 139.372C1019.12 132.955 1022.28 126.131 1024.2 118.945C1026.12 111.76 1027.07 105.772 1027.07 100.959C1027.07 80.4418 1025.06 66.3418 1021.04 58.6592C1019.12 57.8909 1017.01 57.5068 1014.71 57.5068C1017.78 61.1448 1019.32 66.0481 1019.32 72.1716C1019.32 80.035 1017.87 87.8081 1015 95.4681C1012.13 103.151 1008.97 109.432 1005.51 114.313C1002.06 119.194 998.939 124.052 996.16 128.842C993.381 133.633 991.98 137.384 991.98 140.073C991.98 142.378 992.658 144.434 993.991 146.264C995.324 148.094 997.448 148.998 1000.32 148.998V149.021Z" fill="black"/>
</svg>
