<svg width="1098" height="460" viewBox="0 0 1098 460" fill="none" xmlns="http://www.w3.org/2000/svg">
<path d="M22.4382 283.578C19.3654 274.766 16.4508 269.094 13.6718 266.609C10.8927 264.123 6.32874 262.858 0.00244141 262.858V254.52H77.0929V262.858C70.9474 262.858 67.3549 263.965 66.3156 266.157C65.2537 268.371 65.9767 273.772 68.4621 282.403L117.378 427.696C119.095 432.69 120.722 436.508 122.258 439.197C120.338 433.819 119.276 427.402 119.095 419.923C118.892 412.828 120.473 404.106 123.84 393.734C127.184 383.385 130.641 372.019 134.188 359.637C137.735 347.254 139.52 335.142 139.52 323.234C139.52 315.755 138.752 308.954 137.215 302.808C135.679 296.661 133.713 291.577 131.318 287.555C128.923 283.533 126.28 279.94 123.41 276.777C120.541 273.613 117.649 271.218 114.78 269.591C111.91 267.964 109.267 266.631 106.872 265.569C104.477 264.507 102.511 263.897 100.975 263.694L98.6927 263.129V254.497H167.423C167.423 254.701 167.514 254.881 167.717 255.062C167.898 255.265 168.237 255.83 168.711 256.779C169.186 257.751 169.683 258.7 170.157 259.649C170.632 260.598 171.219 261.864 171.874 263.4C172.53 264.937 173.162 266.518 173.75 268.145C174.315 269.772 174.902 271.648 175.467 273.749C176.032 275.85 176.551 277.974 177.048 280.076C177.523 282.177 177.862 284.527 178.065 287.126C178.246 289.724 178.336 292.346 178.336 295.034C178.336 304.999 176.664 314.942 173.298 324.816C169.931 334.691 165.864 343.661 161.075 351.705C156.262 359.772 151.472 367.726 146.682 375.589C141.87 383.453 137.803 391.746 134.459 400.468C131.092 409.19 129.42 417.776 129.42 426.227C129.42 430.633 130.234 434.61 131.861 438.158C133.487 441.705 135.159 444.146 136.899 445.502L139.204 447.219V455.557H102.104C95.5974 455.557 89.6777 453.681 84.4134 449.953C79.1264 446.202 75.4435 441.276 73.3423 435.13L22.4382 283.511V283.578Z" fill="black"/>
<path d="M227.254 374.504C251.022 374.504 262.929 364.54 262.929 344.587C262.929 335.391 260.964 327.369 257.032 320.568C253.101 313.766 247.972 310.354 241.646 310.354C237.037 310.354 233.015 313.043 229.558 318.421C226.101 323.799 223.616 330.126 222.08 337.402C220.543 344.7 219.775 352.18 219.775 359.84C219.775 363.093 219.956 366.641 220.34 370.482C220.724 374.324 221.402 379.114 222.351 384.876C223.3 390.638 224.926 396.061 227.231 401.123C229.536 406.207 232.315 411.042 235.568 415.652C238.822 420.261 243.182 423.945 248.65 426.724C254.118 429.503 260.308 430.904 267.2 430.904C271.425 430.904 276.124 429.503 281.298 426.724C286.472 423.945 290.607 421.211 293.68 418.522L298.56 414.499L305.474 418.522C304.909 419.674 304.141 421.165 303.169 422.973C302.198 424.803 300.006 428.057 296.549 432.757C293.092 437.457 289.364 441.637 285.343 445.275C281.321 448.913 275.943 452.235 269.233 455.195C262.523 458.155 255.609 459.646 248.514 459.646C228.18 459.646 212.161 451.873 200.48 436.35C188.776 420.826 182.924 401.349 182.924 377.962C182.924 363.184 185.952 349.536 191.984 336.972C198.017 324.409 206.309 314.489 216.86 307.191C227.412 299.915 238.912 296.254 251.384 296.254C260.783 296.254 269.323 298.469 276.983 302.875C284.642 307.281 290.788 312.953 295.397 319.845C300.006 326.759 303.553 333.99 306.039 341.559C308.524 349.129 309.767 356.473 309.767 363.568L309.202 381.984L227.231 382.278V374.504H227.254Z" fill="black"/>
<path d="M380.577 455.624H318.714V447.286C324.86 447.286 328.927 446.089 330.938 443.694C332.949 441.298 333.965 435.695 333.965 426.86V325.313C333.965 316.5 332.971 310.829 330.938 308.343C328.927 305.858 324.86 304.592 318.714 304.592V296.254H380.577V360.992C381.91 356.789 383.31 352.699 384.756 348.768C386.18 344.836 388.01 340.656 390.224 336.249C392.416 331.843 394.766 327.776 397.273 324.025C399.781 320.274 402.696 316.681 406.062 313.247C409.406 309.789 412.908 306.829 416.569 304.321C420.206 301.836 424.386 299.87 429.086 298.424C433.785 296.977 438.62 296.254 443.614 296.254C446.867 296.254 449.759 296.458 452.244 296.819C454.73 297.203 456.447 297.588 457.418 297.972L458.864 298.537V342.26C458.864 348.971 456.266 355.298 451.092 361.241C445.918 367.183 439.524 372.471 431.955 377.058C424.386 381.667 416.749 386.254 409.09 390.864C401.408 395.474 394.856 400.897 389.388 407.111C383.92 413.324 381.006 420.013 380.622 427.108V427.673C380.622 436.124 381.616 441.479 383.649 443.784C385.66 446.089 389.727 447.241 395.873 447.241V455.579H380.622L380.577 455.624ZM380.577 394.05V410.455C382.678 406.049 387.287 400.919 394.381 395.067C401.476 389.215 408.57 384.04 415.665 379.521C422.759 375.024 429.176 369.985 434.938 364.427C440.699 358.868 443.568 353.784 443.568 349.174C443.568 339.774 437.807 335.074 426.307 335.074C419.596 335.074 412.728 338.328 405.746 344.858C398.742 351.389 392.935 359.252 388.349 368.449C383.74 377.668 381.164 386.187 380.577 394.05Z" fill="black"/>
<path d="M464.852 447.287C470.997 447.287 475.064 446.044 477.075 443.536C479.086 441.05 480.102 435.379 480.102 426.566V268.914C480.102 260.101 479.108 254.43 477.075 251.944C475.064 249.458 470.997 248.193 464.852 248.193V239.855H526.714V333.651C536.294 308.728 552.222 296.255 574.455 296.255C584.803 296.255 593.727 300.277 601.206 308.344C608.684 316.41 614.107 326.466 617.474 338.555C620.817 350.644 622.512 363.772 622.512 377.962C622.512 392.152 620.84 405.281 617.474 417.37C614.107 429.458 608.684 439.514 601.206 447.581C593.727 455.647 584.825 459.669 574.455 459.669C552.2 459.669 536.294 447.196 526.714 422.273V429.458C526.714 436.757 524.161 442.926 519.077 448.01C513.993 453.094 507.893 455.625 500.821 455.625H464.874V447.287H464.852ZM526.714 368.743V387.159C526.894 387.724 527.053 388.65 527.143 389.893C527.233 391.136 527.617 393.486 528.295 396.943C528.973 400.4 529.741 403.699 530.6 406.862C531.458 410.026 532.611 413.528 534.057 417.37C535.503 421.211 536.971 424.51 538.508 427.289C540.044 430.069 542.01 432.419 544.405 434.339C546.8 436.26 549.24 437.209 551.748 437.209C554.436 437.209 557.08 436.192 559.656 434.181C562.231 432.17 564.784 429.007 567.27 424.691C569.755 420.375 571.766 414.184 573.302 406.139C574.839 398.073 575.607 388.695 575.607 377.94C575.607 367.184 574.839 357.806 573.302 349.74C571.766 341.673 569.755 335.504 567.27 331.188C564.784 326.872 562.231 323.709 559.656 321.698C557.057 319.687 554.414 318.67 551.748 318.67C548.291 318.67 545.037 320.387 541.965 323.845C538.892 327.302 536.497 331.459 534.78 336.363C533.063 341.244 531.504 346.147 530.171 351.028C528.838 355.908 527.956 360.089 527.595 363.546L526.736 368.72L526.714 368.743Z" fill="black"/>
<path d="M682.317 374.504C706.086 374.504 717.993 364.54 717.993 344.587C717.993 335.391 716.027 327.369 712.096 320.568C708.164 313.766 703.036 310.354 696.709 310.354C692.1 310.354 688.078 313.043 684.622 318.421C681.165 323.799 678.679 330.126 677.143 337.402C675.607 344.7 674.838 352.18 674.838 359.84C674.838 363.093 675.019 366.641 675.403 370.482C675.787 374.324 676.465 379.114 677.414 384.876C678.363 390.638 679.99 396.061 682.294 401.123C684.599 406.207 687.378 411.042 690.632 415.652C693.885 420.261 698.246 423.945 703.714 426.724C709.181 429.503 715.372 430.904 722.263 430.904C726.488 430.904 731.188 429.503 736.362 426.724C741.536 423.945 745.67 421.211 748.743 418.522L753.623 414.499L760.537 418.522C759.972 419.674 759.204 421.165 758.233 422.973C757.261 424.803 755.069 428.057 751.613 432.757C748.156 437.457 744.428 441.637 740.406 445.275C736.384 448.913 731.007 452.235 724.297 455.195C717.586 458.155 710.672 459.646 703.578 459.646C683.243 459.646 667.224 451.873 655.543 436.35C643.84 420.826 637.988 401.349 637.988 377.962C637.988 363.184 641.015 349.536 647.048 336.972C653.08 324.409 661.372 314.489 671.924 307.191C682.475 299.915 693.976 296.254 706.447 296.254C715.846 296.254 724.387 298.469 732.046 302.875C739.706 307.281 745.851 312.953 750.46 319.845C755.07 326.759 758.617 333.99 761.102 341.559C763.587 349.129 764.83 356.473 764.83 363.568L764.265 381.984L682.294 382.278V374.504H682.317Z" fill="black"/>
<path d="M869.011 326.172C864.018 326.172 859.657 329.087 855.929 334.939C852.201 340.791 849.467 347.457 847.728 354.936C845.988 362.416 845.129 369.421 845.129 375.928C845.129 384.379 846.191 392.13 848.293 399.225C850.394 406.32 852.653 411.788 855.048 415.629C857.443 419.471 859.703 423.402 861.804 427.425C863.905 431.447 864.967 434.994 864.967 438.067C864.967 441.705 864.063 444.936 862.233 447.693C860.403 450.473 858.211 452.484 855.613 453.726C853.037 454.969 850.484 455.602 847.999 455.602H773.778V447.264C779.923 447.264 783.99 446.021 786.001 443.513C788.012 441.027 789.029 435.469 789.029 426.837V325.29C789.029 316.478 788.035 310.806 786.001 308.321C783.99 305.835 779.923 304.57 773.778 304.57V296.232H835.64V421.369C835.64 439.965 839.842 449.275 848.293 449.275C850.778 449.275 852.744 448.213 854.19 446.111C855.613 444.01 856.336 441.276 856.336 437.909C856.336 434.542 855.478 430.859 853.738 426.837C851.998 422.815 850.1 419.019 847.976 415.471C845.853 411.924 843.955 406.659 842.215 399.654C840.498 392.649 839.617 384.741 839.617 375.928C839.617 366.528 840.566 357.332 842.486 348.316C844.407 339.3 847.231 330.826 850.959 322.85C854.709 314.896 859.929 308.456 866.639 303.576C873.349 298.695 881.031 296.232 889.662 296.232C894.836 296.232 899.355 297.045 903.173 298.672C906.992 300.299 909.974 302.265 912.098 304.57C914.199 306.875 915.848 309.948 916.978 313.789C918.13 317.63 918.853 321.223 919.147 324.567C919.441 327.934 919.576 331.911 919.576 336.498V427.402C919.576 435.853 920.571 441.253 922.604 443.649C924.615 446.044 928.795 447.241 935.121 447.241V455.579H893.706C888.148 455.579 883.291 453.568 879.179 449.546C875.066 445.524 872.988 440.621 872.988 434.881V343.39C872.988 342.622 873.033 341.085 873.146 338.78C873.236 336.475 873.282 334.849 873.282 333.9C873.282 332.95 873.146 331.708 872.852 330.149C872.559 328.612 872.084 327.55 871.406 326.985C870.728 326.42 869.915 326.126 868.966 326.126L869.011 326.172Z" fill="black"/>
<path d="M1098 447.286V455.624H1020.91V447.286C1027.03 447.286 1031.12 446.089 1033.13 443.694C1035.14 441.299 1036.16 435.695 1036.16 426.86L1035.87 358.687C1035.87 337.402 1033.18 323.686 1027.8 317.54C1031.44 332.883 1033.27 346.779 1033.27 359.252C1033.27 365.579 1032.7 372.765 1031.55 380.832C1030.4 388.898 1028.34 397.62 1025.36 407.02C1022.38 416.42 1018.74 424.962 1014.43 432.622C1010.11 440.304 1004.39 446.722 997.299 451.896C990.205 457.071 982.342 459.669 973.711 459.669C964.109 459.669 956.879 456.302 951.998 449.591C947.095 442.88 944.655 433.955 944.655 422.838C944.655 417.076 945.898 411.585 948.406 406.297C950.891 401.032 954.167 396.219 958.189 391.904C962.211 387.588 966.684 383.362 971.565 379.25C976.445 375.137 981.303 371.002 986.093 366.89C990.883 362.777 995.311 358.597 999.333 354.372C1003.35 350.169 1006.61 345.356 1009.12 339.978C1011.6 334.623 1012.87 328.951 1012.87 323.008C1012.87 319.37 1011.51 315.913 1008.84 312.659C1002.9 313.631 997.57 316.162 992.871 320.274C988.171 324.409 984.579 328.996 982.093 334.08C979.608 339.164 977.484 344.158 975.767 349.039C974.05 353.92 972.898 358.01 972.31 361.263L971.452 366.438H963.679V316.094C964.063 315.529 964.628 314.806 965.396 313.925C966.165 313.066 967.995 311.484 970.864 309.179C973.734 306.875 976.942 304.864 980.489 303.146C984.036 301.429 988.826 299.847 994.882 298.401C1000.91 296.955 1007.4 296.232 1014.29 296.232C1025.59 296.232 1035.57 298.062 1044.2 301.7C1052.83 305.338 1059.5 309.767 1064.2 314.941C1068.9 320.116 1072.74 326.059 1075.7 332.77C1078.66 339.481 1080.58 345.378 1081.46 350.462C1082.32 355.547 1082.75 360.292 1082.75 364.698V427.696C1082.75 436.147 1083.74 441.502 1085.78 443.807C1087.79 446.111 1091.85 447.264 1098 447.264V447.286ZM1000.19 403.541C1005.37 403.541 1010.16 400.332 1014.58 393.892C1018.99 387.475 1022.15 380.651 1024.07 373.465C1025.99 366.28 1026.94 360.292 1026.94 355.479C1026.94 334.962 1024.93 320.862 1020.91 313.179C1018.99 312.411 1016.89 312.027 1014.58 312.027C1017.66 315.665 1019.19 320.568 1019.19 326.691C1019.19 334.555 1017.75 342.328 1014.88 349.988C1012.01 357.671 1008.84 363.952 1005.39 368.833C1001.93 373.714 998.813 378.572 996.034 383.362C993.255 388.153 991.854 391.904 991.854 394.593C991.854 396.897 992.532 398.954 993.865 400.784C995.198 402.614 997.322 403.518 1000.19 403.518V403.541Z" fill="black"/>
<path d="M61.7944 97.5019C61.7944 114.607 70.0638 127.487 70.0638 127.487C71.0579 129.927 75.9834 137.971 79.5306 142.852C83.0779 147.733 87.7322 151.778 93.4711 154.941C99.2325 158.105 105.446 159.686 112.179 159.686C117.353 159.686 121.917 158.669 125.848 156.658C129.779 154.647 132.762 152.388 134.773 149.902C136.784 147.417 138.41 144.479 139.653 141.135C140.896 137.791 141.664 135.418 141.958 134.085C142.251 132.752 142.387 131.599 142.387 130.628V130.334H150.159V201.105H0V192.767C6.14555 192.767 10.2125 191.569 12.2233 189.174C14.2342 186.779 15.2509 181.085 15.2509 172.046V29.0585C15.2509 20.2461 14.2568 14.5744 12.2233 12.0889C10.2125 9.60332 6.14555 8.33794 0 8.33794V0H77.0905V8.33794C70.9449 8.33794 66.878 9.53553 64.8671 11.9307C62.8563 14.3259 61.8396 19.6586 61.8396 27.9061V80.5549M61.8396 128.029V173.492C61.8396 178.667 63.6697 183.073 67.3073 186.734C70.9449 190.372 75.3733 192.202 80.5473 192.202H97.8091C102.983 192.202 107.818 191.185 112.337 189.174C116.833 187.163 120.584 184.632 123.566 181.559C126.526 178.486 129.169 174.848 131.474 170.623C133.779 166.397 135.541 162.42 136.784 158.692C138.026 154.964 139.133 151.077 140.105 147.032C135.496 159.505 126.3 165.742 112.495 165.742C100.611 165.742 90.1497 162.533 81.1348 156.116C72.1198 149.699 65.7031 140.344 61.8622 128.074" fill="black"/>
<path d="M313.129 192.767V201.105H236.039V192.767C242.184 192.767 246.251 191.569 248.262 189.174C250.273 186.779 251.29 181.175 251.29 172.34L250.996 104.168C250.996 82.8821 248.307 69.1663 242.93 63.0202C246.567 78.3629 248.398 92.2595 248.398 104.733C248.398 111.059 247.833 118.245 246.68 126.312C245.528 134.379 243.472 143.101 240.49 152.501C237.507 161.901 233.87 170.442 229.554 178.102C225.239 185.785 219.523 192.202 212.428 197.376C205.334 202.551 197.471 205.149 188.84 205.149C179.26 205.149 172.007 201.783 167.127 195.071C162.247 188.36 159.784 179.435 159.784 168.318C159.784 162.556 161.027 157.065 163.535 151.777C166.02 146.513 169.296 141.7 173.318 137.384C177.34 133.068 181.791 128.842 186.694 124.73C191.574 120.618 196.432 116.482 201.221 112.37C206.011 108.257 210.417 104.077 214.461 99.8518C218.483 95.6489 221.737 90.836 224.245 85.4581C226.73 80.1028 227.995 74.4312 227.995 68.4885C227.995 64.8505 226.64 61.3933 223.974 58.1395C218.031 59.1111 212.699 61.6419 208 65.7543C203.3 69.8894 199.708 74.4764 197.222 79.5605C194.737 84.6446 192.613 89.6384 190.896 94.5191C189.179 99.3999 188.027 103.49 187.439 106.744L186.581 111.918H178.808V61.5741C179.192 61.0092 179.757 60.2861 180.525 59.4049C181.294 58.5462 183.124 56.9645 185.993 54.6597C188.863 52.3549 192.071 50.3438 195.641 48.6265C199.188 46.9092 203.978 45.3275 210.033 43.8814C216.066 42.4352 222.55 41.7122 229.441 41.7122C240.761 41.7122 250.725 43.5424 259.356 47.1804C267.986 50.8184 274.652 55.2472 279.351 60.4217C284.051 65.5962 287.892 71.5389 290.852 78.25C293.811 84.961 295.732 90.8586 296.613 95.9427C297.472 101.027 297.901 105.772 297.901 110.178V173.176C297.901 181.627 298.918 186.982 300.928 189.287C302.939 191.592 307.006 192.744 313.152 192.744L313.129 192.767ZM215.32 149.021C220.494 149.021 225.284 145.812 229.712 139.372C234.118 132.955 237.281 126.131 239.202 118.945C241.122 111.76 242.071 105.772 242.071 100.959C242.071 80.4418 240.06 66.3418 236.039 58.6592C234.118 57.8909 232.017 57.5068 229.712 57.5068C232.785 61.1448 234.322 66.0481 234.322 72.1716C234.322 80.035 232.876 87.8081 230.006 95.4681C227.137 103.151 223.974 109.432 220.517 114.313C217.06 119.194 213.942 124.052 211.163 128.842C208.384 133.633 206.983 137.384 206.983 140.073C206.983 142.378 207.661 144.434 208.994 146.264C210.327 148.094 212.451 148.998 215.32 148.998V149.021Z" fill="black"/>
</svg>
