<svg width="805" height="316" viewBox="0 0 805 316" fill="none" xmlns="http://www.w3.org/2000/svg">
<path d="M16.4404 186.039C14.1887 179.582 12.053 175.426 10.0166 173.604C7.98014 171.783 4.63576 170.856 0 170.856V164.746H56.4901V170.856C51.9867 170.856 49.3543 171.667 48.5927 173.273C47.8146 174.896 48.3444 178.853 50.1656 185.178L86.0099 291.645C87.2682 295.305 88.4603 298.103 89.5861 300.073C88.1788 296.133 87.4006 291.43 87.2682 285.949C87.1192 280.75 88.2781 274.359 90.745 266.759C93.1954 259.175 95.7285 250.847 98.3278 241.773C100.927 232.699 102.235 223.824 102.235 215.098C102.235 209.618 101.672 204.634 100.546 200.13C99.4205 195.626 97.9801 191.901 96.2252 188.954C94.4702 186.006 92.5331 183.374 90.4305 181.056C88.3278 178.737 86.2086 176.982 84.106 175.79C82.0033 174.598 80.0662 173.621 78.3113 172.843C76.5563 172.065 75.1159 171.618 73.9901 171.469L72.3179 171.055V164.729H122.682C122.682 164.879 122.748 165.011 122.897 165.143C123.03 165.292 123.278 165.706 123.626 166.402C123.974 167.114 124.338 167.809 124.685 168.505C125.033 169.2 125.464 170.127 125.944 171.253C126.424 172.379 126.887 173.538 127.318 174.73C127.732 175.923 128.162 177.297 128.576 178.837C128.99 180.377 129.371 181.933 129.735 183.473C130.083 185.013 130.331 186.735 130.48 188.639C130.613 190.543 130.679 192.464 130.679 194.434C130.679 201.736 129.454 209.022 126.987 216.257C124.52 223.493 121.54 230.067 118.03 235.961C114.503 241.872 110.993 247.701 107.483 253.463C103.957 259.225 100.977 265.302 98.5265 271.693C96.0596 278.084 94.8344 284.376 94.8344 290.569C94.8344 293.798 95.4305 296.712 96.6225 299.312C97.8146 301.911 99.0397 303.699 100.315 304.693L102.003 305.951V312.061H74.8179C70.0497 312.061 65.7119 310.687 61.8543 307.955C57.9801 305.206 55.2814 301.597 53.7417 297.093L16.4404 185.99V186.039Z" fill="black"/>
<path d="M166.524 252.668C183.942 252.668 192.667 245.366 192.667 230.745C192.667 224.006 191.226 218.128 188.346 213.144C185.465 208.16 181.707 205.66 177.071 205.66C173.693 205.66 170.746 207.631 168.213 211.571C165.68 215.512 163.859 220.148 162.733 225.48C161.607 230.828 161.044 236.309 161.044 241.922C161.044 244.306 161.177 246.906 161.458 249.721C161.74 252.535 162.236 256.046 162.932 260.268C163.627 264.49 164.819 268.464 166.508 272.173C168.197 275.899 170.233 279.442 172.617 282.82C175.001 286.198 178.197 288.896 182.203 290.933C186.21 292.97 190.746 293.996 195.796 293.996C198.892 293.996 202.336 292.97 206.127 290.933C209.918 288.896 212.948 286.893 215.2 284.923L218.776 281.975L223.842 284.923C223.428 285.767 222.866 286.86 222.154 288.185C221.442 289.526 219.836 291.91 217.303 295.354C214.769 298.798 212.038 301.861 209.091 304.527C206.144 307.193 202.203 309.627 197.286 311.796C192.369 313.965 187.303 315.058 182.104 315.058C167.203 315.058 155.465 309.362 146.905 297.987C138.329 286.612 134.041 272.339 134.041 255.201C134.041 244.372 136.26 234.372 140.68 225.165C145.101 215.959 151.177 208.69 158.909 203.342C166.64 198.01 175.067 195.328 184.207 195.328C191.094 195.328 197.352 196.951 202.965 200.18C208.577 203.408 213.081 207.564 216.458 212.615C219.836 217.681 222.435 222.98 224.256 228.527C226.077 234.073 226.988 239.455 226.988 244.654L226.574 258.149L166.508 258.364V252.668H166.524Z" fill="black"/>
<path d="M278.876 312.111H233.545V306.001C238.048 306.001 241.028 305.123 242.502 303.368C243.975 301.613 244.72 297.507 244.72 291.032V216.622C244.72 210.164 243.992 206.008 242.502 204.187C241.028 202.365 238.048 201.438 233.545 201.438V195.328H278.876V242.766C279.853 239.687 280.879 236.69 281.939 233.809C282.982 230.927 284.323 227.864 285.946 224.636C287.552 221.407 289.273 218.426 291.111 215.678C292.949 212.929 295.085 210.296 297.552 207.78C300.002 205.246 302.568 203.077 305.25 201.239C307.916 199.418 310.979 197.977 314.422 196.918C317.866 195.858 321.409 195.328 325.068 195.328C327.452 195.328 329.571 195.477 331.393 195.742C333.214 196.024 334.472 196.305 335.184 196.587L336.244 197V229.04C336.244 233.958 334.34 238.594 330.548 242.948C326.757 247.303 322.071 251.178 316.525 254.539C310.979 257.917 305.383 261.278 299.77 264.656C294.141 268.034 289.34 272.007 285.333 276.561C281.326 281.114 279.191 286.015 278.909 291.215V291.629C278.909 297.821 279.638 301.745 281.128 303.434C282.601 305.123 285.581 305.968 290.085 305.968V312.077H278.909L278.876 312.111ZM278.876 266.99V279.011C280.416 275.783 283.793 272.024 288.992 267.736C294.191 263.447 299.389 259.655 304.588 256.344C309.787 253.049 314.489 249.356 318.71 245.283C322.932 241.21 325.035 237.484 325.035 234.107C325.035 227.219 320.813 223.774 312.386 223.774C307.469 223.774 302.436 226.159 297.32 230.944C292.187 235.729 287.932 241.491 284.571 248.23C281.194 254.986 279.307 261.228 278.876 266.99Z" fill="black"/>
<path d="M340.631 306.001C345.134 306.001 348.114 305.09 349.588 303.252C351.061 301.431 351.806 297.275 351.806 290.817V175.293C351.806 168.836 351.078 164.68 349.588 162.858C348.114 161.037 345.134 160.11 340.631 160.11V154H385.962V222.732C392.982 204.468 404.654 195.328 420.945 195.328C428.528 195.328 435.068 198.276 440.548 204.187C446.028 210.098 450.002 217.466 452.469 226.325C454.919 235.183 456.161 244.803 456.161 255.202C456.161 265.6 454.935 275.22 452.469 284.078C450.002 292.937 446.028 300.305 440.548 306.216C435.068 312.127 428.545 315.075 420.945 315.075C404.637 315.075 392.982 305.935 385.962 287.671V292.937C385.962 298.285 384.091 302.805 380.366 306.531C376.641 310.256 372.171 312.111 366.988 312.111H340.647V306.001H340.631ZM385.962 248.446V261.941C386.094 262.355 386.21 263.033 386.277 263.944C386.343 264.855 386.624 266.577 387.121 269.11C387.618 271.643 388.18 274.061 388.81 276.379C389.439 278.697 390.283 281.264 391.343 284.078C392.402 286.893 393.478 289.311 394.604 291.347C395.73 293.384 397.171 295.106 398.926 296.513C400.681 297.921 402.469 298.616 404.306 298.616C406.277 298.616 408.214 297.871 410.101 296.397C411.988 294.924 413.859 292.606 415.681 289.443C417.502 286.281 418.975 281.744 420.101 275.849C421.227 269.938 421.79 263.067 421.79 255.185C421.79 247.303 421.227 240.432 420.101 234.521C418.975 228.61 417.502 224.089 415.681 220.927C413.859 217.764 411.988 215.446 410.101 213.973C408.197 212.499 406.26 211.754 404.306 211.754C401.773 211.754 399.389 213.012 397.137 215.545C394.886 218.079 393.131 221.125 391.873 224.719C390.614 228.295 389.472 231.888 388.495 235.465C387.518 239.041 386.873 242.104 386.608 244.638L385.979 248.429L385.962 248.446Z" fill="black"/>
<path d="M499.983 252.668C517.401 252.668 526.126 245.366 526.126 230.745C526.126 224.006 524.685 218.128 521.805 213.144C518.924 208.16 515.166 205.66 510.53 205.66C507.152 205.66 504.205 207.631 501.672 211.571C499.139 215.512 497.318 220.148 496.192 225.48C495.066 230.828 494.503 236.309 494.503 241.922C494.503 244.306 494.636 246.906 494.917 249.721C495.199 252.535 495.695 256.046 496.391 260.268C497.086 264.49 498.278 268.464 499.967 272.173C501.656 275.899 503.692 279.442 506.076 282.82C508.46 286.198 511.656 288.896 515.662 290.933C519.669 292.97 524.205 293.996 529.255 293.996C532.351 293.996 535.795 292.97 539.586 290.933C543.377 288.896 546.407 286.893 548.659 284.923L552.235 281.975L557.301 284.923C556.887 285.767 556.324 286.86 555.613 288.185C554.901 289.526 553.295 291.91 550.762 295.354C548.228 298.798 545.497 301.861 542.55 304.527C539.603 307.193 535.662 309.627 530.745 311.796C525.828 313.965 520.762 315.058 515.563 315.058C500.662 315.058 488.924 309.362 480.364 297.987C471.788 286.612 467.5 272.339 467.5 255.201C467.5 244.372 469.719 234.372 474.139 225.165C478.56 215.959 484.636 208.69 492.368 203.342C500.099 198.01 508.526 195.328 517.666 195.328C524.553 195.328 530.811 196.951 536.424 200.18C542.036 203.408 546.54 207.564 549.917 212.615C553.295 217.681 555.894 222.98 557.715 228.527C559.536 234.073 560.447 239.455 560.447 244.654L560.033 258.149L499.967 258.364V252.668H499.983Z" fill="black"/>
<path d="M636.789 217.251C633.13 217.251 629.934 219.387 627.203 223.675C624.471 227.964 622.467 232.848 621.193 238.329C619.918 243.809 619.289 248.942 619.289 253.711C619.289 259.904 620.067 265.583 621.607 270.782C623.146 275.981 624.802 279.988 626.557 282.803C628.312 285.618 629.968 288.499 631.507 291.446C633.047 294.394 633.825 296.993 633.825 299.245C633.825 301.911 633.163 304.279 631.822 306.299C630.481 308.335 628.875 309.809 626.971 310.72C625.083 311.63 623.213 312.094 621.391 312.094H567.004V305.984C571.507 305.984 574.487 305.073 575.961 303.236C577.434 301.414 578.179 297.341 578.179 291.016V216.605C578.179 210.147 577.451 205.991 575.961 204.17C574.487 202.349 571.507 201.421 567.004 201.421V195.312H612.335V287.009C612.335 300.636 615.414 307.458 621.607 307.458C623.428 307.458 624.868 306.68 625.928 305.14C626.971 303.6 627.501 301.596 627.501 299.129C627.501 296.662 626.871 293.963 625.597 291.016C624.322 288.069 622.931 285.287 621.375 282.687C619.819 280.088 618.428 276.23 617.153 271.097C615.895 265.964 615.249 260.169 615.249 253.711C615.249 246.823 615.944 240.084 617.352 233.477C618.759 226.871 620.828 220.662 623.56 214.817C626.309 208.988 630.133 204.269 635.05 200.693C639.968 197.116 645.597 195.312 651.921 195.312C655.713 195.312 659.024 195.908 661.822 197.1C664.62 198.292 666.805 199.732 668.362 201.421C669.901 203.11 671.11 205.362 671.938 208.177C672.782 210.992 673.312 213.624 673.527 216.075C673.742 218.542 673.842 221.456 673.842 224.818V291.43C673.842 297.622 674.57 301.58 676.06 303.335C677.534 305.09 680.597 305.968 685.232 305.968V312.077H654.885C650.812 312.077 647.252 310.604 644.239 307.656C641.226 304.709 639.703 301.116 639.703 296.91V229.868C639.703 229.305 639.736 228.179 639.818 226.49C639.885 224.801 639.918 223.609 639.918 222.913C639.918 222.218 639.819 221.307 639.603 220.165C639.388 219.039 639.04 218.261 638.544 217.847C638.047 217.433 637.451 217.218 636.756 217.218L636.789 217.251Z" fill="black"/>
<path d="M804.586 306.001V312.111H748.096V306.001C752.583 306.001 755.58 305.123 757.053 303.368C758.527 301.613 759.272 297.507 759.272 291.032L759.056 241.077C759.056 225.48 757.086 215.429 753.146 210.926C755.811 222.168 757.153 232.351 757.153 241.491C757.153 246.128 756.739 251.393 755.894 257.304C755.05 263.215 753.543 269.607 751.358 276.495C749.172 283.383 746.507 289.642 743.345 295.255C740.182 300.884 735.994 305.587 730.795 309.378C725.596 313.17 719.835 315.074 713.51 315.074C706.474 315.074 701.176 312.607 697.6 307.69C694.007 302.772 692.219 296.232 692.219 288.085C692.219 283.863 693.129 279.839 694.967 275.965C696.788 272.107 699.189 268.58 702.136 265.417C705.083 262.255 708.361 259.159 711.937 256.145C715.514 253.132 719.073 250.101 722.583 247.088C726.093 244.074 729.338 241.011 732.285 237.915C735.232 234.835 737.616 231.308 739.454 227.368C741.275 223.443 742.202 219.287 742.202 214.933C742.202 212.267 741.209 209.733 739.255 207.349C734.901 208.061 730.994 209.916 727.55 212.929C724.106 215.959 721.474 219.32 719.653 223.046C717.831 226.771 716.275 230.431 715.017 234.007C713.759 237.584 712.914 240.581 712.484 242.965L711.854 246.757H706.159V209.866C706.441 209.452 706.854 208.922 707.417 208.276C707.98 207.647 709.321 206.488 711.424 204.799C713.527 203.11 715.878 201.637 718.477 200.378C721.076 199.12 724.586 197.961 729.023 196.901C733.444 195.841 738.196 195.312 743.245 195.312C751.523 195.312 758.841 196.653 765.166 199.319C771.49 201.984 776.374 205.23 779.818 209.021C783.262 212.813 786.076 217.168 788.245 222.086C790.414 227.003 791.821 231.325 792.467 235.05C793.096 238.776 793.411 242.253 793.411 245.482V291.645C793.411 297.838 794.139 301.762 795.629 303.451C797.103 305.14 800.083 305.984 804.586 305.984V306.001ZM732.914 273.945C736.706 273.945 740.215 271.593 743.46 266.875C746.689 262.172 749.007 257.172 750.414 251.906C751.821 246.641 752.517 242.253 752.517 238.726C752.517 223.692 751.043 213.36 748.096 207.73C746.689 207.167 745.149 206.885 743.46 206.885C745.712 209.551 746.838 213.144 746.838 217.631C746.838 223.394 745.778 229.09 743.676 234.703C741.573 240.332 739.255 244.935 736.722 248.512C734.189 252.088 731.904 255.648 729.868 259.159C727.831 262.669 726.805 265.417 726.805 267.388C726.805 269.077 727.302 270.583 728.278 271.925C729.255 273.266 730.811 273.928 732.914 273.928V273.945Z" fill="black"/>
<path d="M333.281 71.4471C333.281 83.9814 339.341 93.4193 339.341 93.4193C340.07 95.2076 343.679 101.102 346.278 104.679C348.877 108.255 352.288 111.219 356.493 113.537C360.715 115.855 365.268 117.014 370.202 117.014C373.993 117.014 377.338 116.269 380.219 114.796C383.099 113.322 385.285 111.666 386.758 109.845C388.232 108.023 389.424 105.871 390.334 103.42C391.245 100.97 391.808 99.2311 392.023 98.2542C392.238 97.2773 392.338 96.4329 392.338 95.7209V95.5056H398.033V147.365H288V141.255C292.503 141.255 295.483 140.377 296.957 138.622C298.43 136.867 299.175 132.695 299.175 126.071V21.2934C299.175 14.8358 298.447 10.6798 296.957 8.85845C295.483 7.03708 292.503 6.10984 288 6.10984V0H344.49V6.10984C339.987 6.10984 337.007 6.98741 335.533 8.74254C334.06 10.4977 333.315 14.4053 333.315 20.4489V59.0287M333.315 93.8167V127.131C333.315 130.923 334.656 134.152 337.321 136.834C339.987 139.5 343.232 140.841 347.023 140.841H359.672C363.464 140.841 367.007 140.096 370.318 138.622C373.613 137.149 376.361 135.294 378.546 133.042C380.715 130.79 382.652 128.125 384.341 125.028C386.03 121.932 387.321 119.018 388.232 116.286C389.142 113.554 389.954 110.706 390.666 107.742C387.288 116.882 380.55 121.452 370.434 121.452C361.725 121.452 354.06 119.101 347.454 114.398C340.848 109.696 336.146 102.841 333.331 93.8498" fill="black"/>
<path d="M517.453 141.255V147.364H460.963V141.255C465.467 141.255 468.447 140.377 469.92 138.622C471.394 136.867 472.139 132.76 472.139 126.286L471.924 76.3313C471.924 60.7338 469.953 50.6832 466.013 46.1795C468.679 57.4222 470.02 67.6053 470.02 76.7452C470.02 81.3814 469.606 86.6468 468.761 92.558C467.917 98.4691 466.41 104.86 464.225 111.749C462.04 118.637 459.374 124.895 456.212 130.509C453.05 136.138 448.861 140.841 443.662 144.632C438.463 148.424 432.702 150.328 426.377 150.328C419.357 150.328 414.043 147.861 410.467 142.943C406.891 138.026 405.086 131.485 405.086 123.339C405.086 119.117 405.997 115.093 407.834 111.219C409.655 107.361 412.056 103.834 415.003 100.671C417.95 97.5088 421.212 94.4125 424.804 91.3989C428.381 88.3854 431.94 85.3553 435.45 82.3418C438.96 79.3283 442.189 76.2651 445.152 73.1688C448.099 70.089 450.483 66.5622 452.321 62.6214C454.142 58.6972 455.069 54.5412 455.069 50.1865C455.069 47.5207 454.076 44.9873 452.122 42.603C447.768 43.315 443.861 45.1694 440.417 48.183C436.973 51.2131 434.341 54.5743 432.52 58.2998C430.699 62.0253 429.142 65.6846 427.884 69.2611C426.626 72.8376 425.781 75.8346 425.351 78.2189L424.722 82.0106H419.026V45.1198C419.308 44.7058 419.722 44.176 420.285 43.5302C420.848 42.901 422.189 41.742 424.291 40.0531C426.394 38.3642 428.745 36.8905 431.361 35.6321C433.96 34.3737 437.47 33.2147 441.907 32.155C446.328 31.0953 451.079 30.5654 456.129 30.5654C464.424 30.5654 471.725 31.9066 478.05 34.5724C484.374 37.2382 489.258 40.4836 492.702 44.2753C496.146 48.0671 498.96 52.4218 501.129 57.3395C503.298 62.2571 504.705 66.5787 505.351 70.3042C505.98 74.0298 506.295 77.5069 506.295 80.7357V126.899C506.295 133.092 507.04 137.016 508.513 138.705C509.987 140.394 512.967 141.238 517.47 141.238L517.453 141.255ZM445.781 109.199C449.573 109.199 453.083 106.847 456.328 102.128C459.556 97.426 461.874 92.4255 463.281 87.1601C464.689 81.8947 465.384 77.5069 465.384 73.9801C465.384 58.9456 463.91 48.6135 460.963 42.9838C459.556 42.4208 458.016 42.1394 456.328 42.1394C458.579 44.8052 459.705 48.3982 459.705 52.8854C459.705 58.6475 458.646 64.3434 456.543 69.9565C454.44 75.5862 452.122 80.1893 449.589 83.7658C447.056 87.3423 444.771 90.9022 442.735 94.4125C440.699 97.9227 439.672 100.671 439.672 102.642C439.672 104.331 440.169 105.837 441.146 107.179C442.122 108.52 443.679 109.182 445.781 109.182V109.199Z" fill="black"/>
</svg>
