<svg width="688" height="1000" viewBox="0 0 688 1000" fill="none" xmlns="http://www.w3.org/2000/svg">
<g style="mix-blend-mode:luminosity" opacity="0.25">
<g style="mix-blend-mode:multiply" opacity="0.5">
<path d="M102.274 999.664C142.984 982.975 190.632 998.896 233.993 984.676C264.888 966.485 306.832 943.679 344.294 958.128C369.979 976.587 432.118 945.179 389.641 926.207C362.483 909.381 316.806 907.769 302.274 880.353C306.941 855.543 350.572 873.517 350.577 844.218C379.268 844.035 426.506 833.986 383.676 815.543C341.961 820.496 312.272 774.467 269.348 792.093C221.112 800.79 249.92 781.349 273.937 770.298C278.278 751.272 317.762 760.94 311.507 742.518C347.483 754.762 396.504 744.328 414.867 714.7C452.96 721.867 445.125 669.871 486.891 685.937C526.02 673.661 592.956 696.562 606.456 654.179C594.554 597.523 523.077 623.487 481.51 604.455C451.289 584.635 413.772 580.079 380.495 566.632C353.791 562.468 339.44 560.173 375.884 554.624C414.61 542.03 427.864 478.74 480.288 510.895C513.78 504.481 546.428 499.587 572.606 524.859C599.772 536.916 658.334 523.502 616.605 497.9C579.594 472.14 530.502 467.259 484.757 459.568C442.199 442.559 411.694 411.693 368.017 399.851C352.696 346.218 423.071 374.986 458.45 358.053C483.854 338.7 518.189 344.238 550.967 353.695C582.665 359.359 623.898 356.591 649.759 336.194C707.384 335.172 690.325 271.087 660.805 248.383C654.044 217.886 600.874 202.306 574.898 204.048C602.993 209.584 625.028 222.661 582.59 210.981C572.443 206.792 557.305 223.789 554.3 209.268C541.857 199.479 484.876 209.823 462.421 188.9C452.213 180.496 385.61 149.584 413.754 170.155C377.874 155.517 337.634 155.415 299.178 161.2C322.518 155.441 347.66 149.894 305.58 154.718C268.151 163.743 228.261 169.564 194.402 185.637C210.21 180.405 303.45 156.713 243.291 175.982C198.883 190.305 159.126 211.875 111.237 217.765C82.9648 224.905 24.2737 250.155 15.7237 241.703C43.5188 236.633 65.8441 219.683 25.7477 234.24C10.3094 237.461 -18.1658 253.658 10.9079 232.429C31.0383 225.654 57.8088 208.532 22.5638 223.909C-19.1126 237.463 35.4443 209.989 28.6281 208.432C71.7354 193.865 18.0778 198.548 2.22565 220.941C-14.8873 247.652 -52.1826 284.178 -7.61505 306.876C38.2065 330.655 -60.3663 347.875 -83.4882 356.84C-109.517 372.257 -106.473 411.556 -74.4189 412.049C-28.3966 423.991 -73.8726 455.557 -75.2388 480.23C-80.7564 501.849 -66.4559 518.292 -54.7529 543.966C-50.4374 564.599 -33.5786 613.789 9.87561 613.014C53.8811 597.639 70.5601 648.267 58.7589 674.331C29.7381 710.872 81.0042 729.809 104.636 743.346C113.548 749.429 121.057 798.605 100.308 766.57C77.1449 756.494 51.5296 719.743 23.9349 745.087C0.653137 775.612 -23.1513 801.72 -64.2594 812.903C-93.9565 837.37 -52.4059 862.583 -26.4219 843.265C7.39075 841.775 39.9432 862.393 66.939 866.137C72.249 889.147 41.6093 909.244 37.8631 926.939C26.1409 943.464 52.0131 957.942 47.2398 962.19C51.7202 983.798 71.9772 1002.78 102.274 999.664ZM75.9192 986.997C53.61 981.501 53.6462 939.704 69.1737 975.089C75.1649 981.564 102.761 997.836 75.9192 986.997ZM102.995 982.323C113.038 974.384 89.7366 973.237 102.995 982.323V982.323ZM194.402 982.862C222.451 985.823 205.088 973.498 194.402 982.862V982.862ZM174.549 979.723C184.227 958.725 224.264 968.943 185.228 978.087C182.357 976.816 177.561 982.351 174.549 979.723ZM194.402 967.51C189.207 964.105 189.207 970.914 194.402 967.51V967.51ZM113.222 975.842C96.9626 941.963 137.99 963.198 119.677 972.255C120.539 976.22 114.71 984.198 113.222 975.842ZM114.99 975.379C113.727 973.726 113.727 977.032 114.99 975.379V975.379ZM121.358 963.008C122.233 955.725 108.462 967.86 121.358 963.008V963.008ZM84.9661 977.458C100.239 985.305 77.4072 966.45 84.9661 977.458V977.458ZM232.078 972.833C256.764 950.52 233.042 985.402 232.078 972.833V972.833ZM128.558 974.685C140.744 962.113 212.105 959.919 157.262 969.511C147.025 964.792 134.829 987.254 128.558 974.685ZM213.263 973.91C237.156 979.107 212.097 964.669 213.263 973.91V973.91ZM97.7852 973.026C64.4525 950.465 104.042 955.515 100.413 973.591L97.7852 973.026ZM77.2686 970.179C82.4639 974.657 80.4319 967.39 77.2686 970.179V970.179ZM256.94 965.658C260.715 962.35 259.493 969.07 256.94 965.658V965.658ZM260.911 963.078C266.286 959.957 264.609 965.909 260.911 963.078V963.078ZM132.858 961.955C135.323 958.667 134.027 965.318 132.858 961.955V961.955ZM130.21 962.264C133.097 960.929 130.488 964.231 130.21 962.264V962.264ZM205.777 960.042C212.35 965.456 205.553 953.477 205.777 960.042V960.042ZM262.896 955.883C270.337 937.617 329.242 947.12 279.032 951.391C274.182 950.343 265.512 962.645 262.896 955.883ZM268.852 954.086C267.59 952.432 267.59 955.739 268.852 954.086V954.086ZM44.5108 954.957C47.6526 951.603 46.2985 959.606 44.5108 954.957V954.957ZM244.035 954.549C253.86 951.199 246.481 958.112 244.035 954.549V954.549ZM251.977 952.234C253.239 950.581 253.239 953.887 251.977 952.234V952.234ZM130.376 950.451C90.147 943.737 184.395 951.16 138.098 950.84L130.376 950.451ZM370.6 949.92C349.571 944.942 312.741 932.898 279.533 935.526C254.004 939.764 199.187 945.032 188.198 942.319C226.884 930.11 166.987 943.562 158.667 944.079C137.101 943.923 58.2484 932.063 111.75 946.952C78.8729 942.442 69.691 949.676 56.7379 938.822C41.2936 929.706 75.5471 879.576 89.7645 885.729C98.0304 890.449 133.507 890.417 143.388 878.066C153.269 854.365 184.579 866.922 207.466 849.979C229.803 808.088 271.685 849.461 286.242 876.819C294.245 906.654 337.995 905.899 356.868 921.993C333.387 920.323 340.874 925.694 362.159 929.907C321.664 925.487 351.337 948.883 368.54 930.831C389.408 936.053 398.149 951.172 370.6 949.92ZM83.2094 944.133C82.2089 947.852 74.4086 938.157 83.2094 944.133V944.133ZM87.6887 937.892C73.5823 923.375 45.8035 942.223 83.9021 939.736L86.4814 939.313L87.6887 937.892ZM110.393 932.774C93.2501 927.501 58.3236 896.943 98.4763 917.059C105.846 919.456 73.7448 883.963 70.5099 912.741C54.124 919.79 98.5575 934.389 110.393 932.774ZM117.323 909.674C100.445 892.02 68.2484 897.267 117.323 909.674V909.674ZM76.276 901.777C75.1066 905.14 73.8102 898.489 76.276 901.777V901.777ZM85.21 896.685C83.9477 895.032 83.9477 898.338 85.21 896.685V896.685ZM79.2387 895.528C78.2415 884.825 73.737 901.714 79.2387 895.528V895.528ZM83.2264 890.2C87.5782 880.151 75.7439 897.332 83.2264 890.2V890.2ZM96.1292 890.204C94.8669 888.551 94.8669 891.857 96.1292 890.204V890.204ZM141.792 885.575C140.529 883.922 140.529 887.228 141.792 885.575V885.575ZM146.755 878.577C144.533 881.718 143.825 876.835 146.755 878.577V878.577ZM179.513 949.919C187.652 946.811 178.979 953.349 179.513 949.919V949.919ZM190.684 949.375C208.987 949.376 198.795 945.406 190.684 949.375V949.375ZM355.213 948.531C356.475 946.878 356.475 950.184 355.213 948.531V948.531ZM210.285 947.142C216.807 943.72 216.807 950.564 210.285 947.142V947.142ZM202.675 947.451C205.561 946.116 202.952 949.418 202.675 947.451V947.451ZM218.557 945.599C220.708 945.919 216.977 948.287 218.557 945.599V945.599ZM392.519 944.728C413.713 933.479 367.63 925.851 392.519 944.728V944.728ZM301.941 944.673C304.827 943.339 302.218 946.641 301.941 944.673V944.673ZM176.038 944.365C184.359 940.931 182.181 947.859 176.038 944.365V944.365ZM231.462 942.821C234.348 941.487 231.739 944.789 231.462 942.821V942.821ZM363.155 926.311C364.416 924.658 364.416 927.964 363.155 926.311V926.311ZM115.982 885.575C117.245 883.922 117.245 887.228 115.982 885.575V885.575ZM119.719 882.218C148 883.565 123.713 874.031 119.719 882.218V882.218ZM97.6182 878.849C104.083 882.11 93.3481 869.383 97.6182 878.849V878.849ZM139.806 878.169C141.068 876.516 141.068 879.822 139.806 878.169V878.169ZM138.152 876.163C141.038 874.828 138.429 878.13 138.152 876.163V876.163ZM109.748 874.789C102.538 863.011 72.8807 825.277 100.698 847.266C98.0001 855.118 115.159 875.242 109.748 874.789ZM99.1071 849.414C97.3195 854.063 95.9651 846.06 99.1071 849.414V849.414ZM91.6622 874.003C96.5394 877.357 94.3154 870.455 91.6622 874.003V874.003ZM293.668 872.151C302.557 879.82 299.792 862.043 293.668 872.151V872.151ZM130.21 871.534C133.097 870.2 130.488 873.501 130.21 871.534V871.534ZM93.1512 871.688C94.4134 870.035 94.4134 873.341 93.1512 871.688V871.688ZM90.5041 871.534C93.3908 870.2 90.7812 873.501 90.5041 871.534V871.534ZM118.712 865.549C140.084 878.281 112.989 854.67 118.712 865.549V865.549ZM86.812 867.151C68.6441 854.238 65.6709 840.779 63.7436 822.157C39.7555 838.646 54.4302 794.429 73.6776 822.333C69.894 843.288 86.0225 856.139 89.6243 870.299L86.812 867.151ZM295.654 864.425C330.89 859.419 302.91 849.99 295.654 864.425V864.425ZM285.249 862.91C275.038 841.929 314.038 850.625 311.372 831.148C333.625 828.976 319.641 862.761 296.308 853.222C284.944 850.516 294.331 873.143 285.249 862.91ZM140.799 864.407C148.647 848.184 147.804 867.658 140.799 864.407V864.407ZM137.821 865.208C139.083 863.554 139.083 866.861 137.821 865.208V865.208ZM318.67 859.584C332.085 857.048 326.497 821.221 339.354 838.793C338.09 850.215 341.459 866.461 318.67 859.584ZM126.902 857.688C136.333 862.359 133.19 855.219 126.902 857.688V857.688ZM112.343 854.869C114.493 855.189 110.762 857.557 112.343 854.869V854.869ZM54.5791 853.059C53.6544 842.907 16.5696 816.11 45.1632 813.573C31.4122 843.824 86.2427 828.112 54.5791 853.059ZM269.505 843.729C273.531 827.195 318.955 827.679 292.179 841.775C277.046 836.913 278.834 857.615 269.505 843.729ZM175.543 847.386C192.392 849.975 189.253 844.76 175.543 847.386V847.386ZM123.178 847.22C98.1664 837.284 113.139 817.562 130.636 844.869C128.902 839.307 170.493 842.316 148.631 845.977C142.004 842.524 131.778 850.501 123.178 847.22ZM114.99 836.044C113.914 833.677 113.914 838.412 114.99 836.044V836.044ZM35.9463 846.626C4.15308 845.048 22.6197 795.59 30.8361 835.461C29.1931 842.604 52.9726 847.815 35.9463 846.626ZM197.152 845.303C209.571 838.532 192.609 851.344 197.152 845.303V845.303ZM86.6989 845.303C89.8248 848.733 85.8261 841.974 86.6989 845.303V845.303ZM154.696 842.062C155.958 840.409 155.958 843.715 154.696 842.062V842.062ZM204.201 838.571C210.443 836.69 200.588 844.517 204.201 838.571V838.571ZM173.789 840.167C150.706 837.485 216.402 791.083 180.924 810.685C175.581 781.811 212.164 737.776 181.051 717.909C177.94 694.801 149.697 708.301 140.822 707.316C144.632 694.316 139.703 682.858 166.13 692.543C196.669 693.147 186.004 717.884 207.307 732.397C204.15 745.183 179.417 791.453 198.237 777.487C202.619 754.667 236.742 715.536 192.907 707.469C219.565 689.009 157.989 685.406 204.825 684.96C238.826 690.967 195.229 709.643 225.809 724.731C222.711 745.392 195.129 763.229 205.4 785.511C210.038 761.785 248.895 726.206 222.899 703.161C243.78 692.562 197.061 678.184 234.124 677.866C268.374 674.287 221.703 708.19 248.979 719.56C245.642 742.965 203.818 772.581 224.611 795.941C217.783 821.385 210.46 788.626 214.599 812.234C212.454 835.318 186.948 816.893 188.007 837.897C215.423 825.583 183.07 845.952 173.789 840.167ZM199.882 798.378C194.579 817.245 191.545 770.048 199.882 798.378V798.378ZM156.681 841.136C157.944 839.483 157.944 842.79 156.681 841.136V841.136ZM2.62897 835.886C-28.6592 822.747 17.553 826.783 8.52698 839.224L2.62897 835.886ZM-60.3802 838.205C-58.2297 838.525 -61.9604 840.893 -60.3802 838.205V838.205ZM-64.9309 836.276C-73.624 809.721 -20.1752 811.415 -6.87 789.527C10.1755 760.321 49.0159 723.974 77.7648 763.824C103.389 776.207 95.9028 778.73 80.2054 776.721C94.5281 779.825 132.325 811.597 98.5524 801.28C103.972 818.115 54.8158 781.17 85.4684 805.956C92.0942 821.251 101.585 844.391 80.1729 815.84C51.1037 782.503 4.40375 832.589 -23.5877 812.977C-28.8403 818.052 -63.0851 828.845 -64.9309 836.276ZM-62.6964 835.582C-63.9587 833.928 -63.9587 837.235 -62.6964 835.582V835.582ZM-7.10748 812.544C-9.55322 809.882 -19.1487 814.794 -7.10748 812.544V812.544ZM-28.6978 812.286C-29.6722 813.901 -34.1578 810.806 -28.6978 812.286V812.286ZM1.82648 811.047C-0.726013 814.459 -1.94843 807.739 1.82648 811.047V811.047ZM63.1232 797.463C62.1661 783.049 -7.47205 801.383 47.5479 797.155L53.9411 797.468L63.1232 797.463ZM99.3674 791.054C86.8986 773.84 66.9083 791.55 99.3674 791.054V791.054ZM67.0631 787.61C82.9203 774.32 39.1282 792.981 67.0631 787.61V787.61ZM261.903 836.947C289.642 821.189 282.763 839.742 261.903 836.947V836.947ZM208.345 835.039C213.569 829.817 205.326 841.448 208.345 835.039V835.039ZM-40.4686 832.788C-21.7912 839.832 -42.6989 821.943 -40.4686 832.788V832.788ZM385.232 831.059C361.459 825.734 390.076 817.385 389.557 829.53C389.996 828.437 382.476 834.979 385.232 831.059ZM212.44 828.728C219.308 821.851 208.949 836.71 212.44 828.728V828.728ZM201.682 830.798C204.569 829.464 201.959 832.765 201.682 830.798V830.798ZM158.667 830.612C169.596 811.914 191.858 809.019 164.686 828.107C164.541 826.101 158.735 834.036 158.667 830.612ZM129.88 830.953C131.142 829.3 131.142 832.606 129.88 830.953V830.953ZM343.301 829.063C309.245 818.909 272.901 829.577 242.342 824.927C203.45 817.427 266.752 790.383 287.548 796.428C308.189 793.298 371.71 820.507 364.66 827.688C357.695 828.479 350.232 831.212 343.301 829.063ZM341.196 821.441C340.203 811.462 329.384 828.2 341.196 821.441V821.441ZM322.779 821.492C306.557 809.521 282.016 827.702 322.779 821.492V821.492ZM260.911 820.033C268.562 808.42 237.411 825.575 260.911 820.033V820.033ZM292.148 816.682C283.95 819.235 283.313 811.217 292.148 816.682V816.682ZM276.197 815.922C282.778 806.928 259.355 820.209 276.197 815.922V815.922ZM237.599 815.652C268.401 813.44 268.234 802.125 239.006 811.196C235.095 809.954 232.26 819.536 237.599 815.652ZM282.867 811.671C290.029 800.334 267.066 810.864 282.867 811.671V811.671ZM257.933 802.252C256.67 800.599 256.67 803.905 257.933 802.252V802.252ZM127.232 828.021C129.383 828.341 125.652 830.709 127.232 828.021V828.021ZM128.887 826.378C130.856 828.309 130.728 822.9 128.887 826.378V826.378ZM127.894 822.048C131.499 820.487 129.319 826.307 127.894 822.048V822.048ZM100.185 823.423C117.322 825.452 92.3042 816.066 100.185 823.423V823.423ZM217.234 820.769C218.496 819.116 218.496 822.422 217.234 820.769V820.769ZM152.049 819.688C154.936 818.354 152.326 821.656 152.049 819.688V819.688ZM218.226 818.454C220.692 815.166 219.396 821.817 218.226 818.454V818.454ZM134.43 814.751C115.226 796.589 166.646 819.043 136.27 815.28L134.43 814.751ZM150.725 817.528C153.249 814.221 153.249 820.836 150.725 817.528V817.528ZM151.718 815.214C152.98 813.561 152.98 816.867 151.718 815.214V815.214ZM221.856 812.164C227.166 802.982 220.306 821.084 221.856 812.164V812.164ZM163.968 807.801C181.192 781.778 182.976 801.146 163.765 810.849L162.839 809.06L163.968 807.801ZM98.1145 812.436C99.3768 810.783 99.3768 814.089 98.1145 812.436V812.436ZM101.739 807.117C115.59 802.455 104.164 818.163 101.739 807.117V807.117ZM122.931 804.567C126.706 807.875 125.484 801.155 122.931 804.567V804.567ZM119.953 801.818C123.953 800.179 123.802 804.828 119.953 801.818V801.818ZM139.705 798.98C113.523 787.202 111.704 773.821 139.942 791.711C170.49 779.563 158.119 801.153 139.705 798.98ZM176.2 784.43C180.519 799.208 176.989 773.178 176.2 784.43V784.43ZM141.543 786.382C139.752 778.356 140.165 777.793 160.174 782.319C155.305 786.221 148.03 788.082 141.543 786.382ZM224.182 783.404C230.306 754.605 265.897 725.625 246.697 699.012C249.242 687.623 260.025 647.85 276.49 676.201C293.721 694.719 237.04 695.75 264.975 721.635C250.781 739.665 238.854 771.254 224.182 783.404ZM130.705 779.417C148.025 793.24 119.546 764.173 130.705 779.417V779.417ZM113.997 781.884C115.259 780.231 115.259 783.537 113.997 781.884V781.884ZM237.087 779.602C248.078 752.73 280.023 728.94 265.821 699.744C306.554 697.759 260.995 642.723 299.418 659.715C289.724 678.215 315.067 706.816 276.734 707.662C291.909 737.853 251.37 754.057 244.61 778.212C241.647 774.778 239.729 783.134 237.087 779.602ZM146.324 774.954C123.574 753.941 126.354 788.093 121.042 755.06C133.15 751.849 145.396 749.302 160.652 767.637C166.422 776.062 151.75 778.719 146.324 774.954ZM135.298 774.879C140.055 778.752 134.114 769.951 135.298 774.879V774.879ZM258.925 768.645C266.21 747.796 299.602 738.098 281.086 711.196C330.583 710.634 276.177 645.393 337.096 652.813C393.687 656.2 280.366 653.816 314.581 688.031C323.311 709.072 310.256 723.685 288.034 719.008C309.957 744.535 271.137 764.264 258.925 768.645ZM133.354 771.238C136.48 774.668 132.481 767.909 133.354 771.238V771.238ZM173.557 764.648C182.46 738.946 152.954 716.011 123.338 727.353C133.945 702.995 70.5809 708.882 117.578 700.218C149.504 683.548 120.473 736.028 158.723 714.667C177.167 711.355 201.165 747.191 176.148 766.236C175.551 768.37 172.91 775.725 173.557 764.648ZM299.319 751.238C297.147 728.755 292.38 723.244 317.879 720.692C331.809 693.914 299.065 653.788 356.206 661.66C385.328 623.621 400.075 677.15 362.096 677.735C300.456 646.752 353.432 723.176 320.365 739.76C294.565 720.048 309.067 751.753 299.319 751.238ZM160.652 749.481C161.914 747.828 161.914 751.134 160.652 749.481V749.481ZM149.046 741.277C117.878 737.729 86.6035 721.469 73.9314 701.323C94.6974 708.073 119.015 716.454 117.648 734.268C129.806 721.656 182.886 758.089 149.046 741.277ZM332.382 742.537C337.73 739.165 336.112 745.996 332.382 742.537V742.537ZM337.842 740.686C340.844 744.126 337.164 737.243 337.842 740.686V740.686ZM358.903 735.022C396.619 734.049 386.312 698.64 428.377 697.48C439.015 680.313 434.274 664.869 463.91 662.19C490.105 634.688 496.684 669.291 457.457 671.006C499.098 681.583 499.803 626.032 544.811 645.531C571.547 628.404 586.902 659.102 551.959 654.228C510.089 637.638 495.366 696.172 449.374 678.607C447.12 715.121 395.787 698.371 385.213 731.749C378.43 734.715 365.779 737.567 358.903 735.022ZM475.511 674.32C475.151 676.081 471.134 673.044 475.511 674.32V674.32ZM337.081 724.715C338.899 706.33 329.746 654.851 352.158 686.599C352.941 692.09 339.451 757.412 337.081 724.715ZM352.708 724.412C351.465 696.996 355.179 687.72 387.286 690.815C411.049 691.501 432.707 621.509 416.629 666.546C418.131 706.886 351.592 684.327 358.191 721.279C359.222 723.122 346.138 735.83 352.708 724.412ZM366.377 721.012C358.238 688.559 429.34 708.059 423.208 665.053C425.518 641.968 484.227 654.336 438.43 662.163C426.03 682.194 421.65 704.751 384.777 707.202C380.632 708.499 370.173 737.651 366.377 721.012ZM60.4746 707.497C50.2225 676.88 74.751 658.869 97.5555 685.231C148.394 688.634 180.947 654.881 175.419 611.806C168.095 576.565 216.82 612.36 223.883 584.223C226.72 548.26 280.84 563.31 308.853 552.167C335.561 558.452 361.488 571.334 389.46 577.741C433.399 578.172 465.743 607.649 505.648 618.837C540.658 616.46 605.058 619.319 595.081 659.993C581.18 616.629 526.674 628.721 490.756 640.661C441.772 645.043 394.148 636.598 344.338 645.838C302.965 643.546 267.414 659.937 230.988 672.305C190.882 682.265 146.146 678.842 109.094 696.223C86.0731 694.785 67.3149 686.802 60.4746 707.497ZM103.078 694.857C101.816 693.204 101.816 696.51 103.078 694.857V694.857ZM98.7762 694.703C98.4991 696.67 95.8896 693.369 98.7762 694.703V694.703ZM94.1438 693.931C92.8815 692.278 92.8815 695.584 94.1438 693.931V693.931ZM89.8423 693.777C89.5651 695.745 86.9555 692.443 89.8423 693.777V693.777ZM361.5 689.148C364.387 687.814 361.777 691.115 361.5 689.148V689.148ZM367.241 685.223C389.836 681.288 390.267 631.997 412.522 650.134C408.759 670.192 395.008 690.883 367.241 685.223ZM530.358 675.436C487.525 677.728 541.357 642.055 560.551 660.609C581.945 639.476 603.237 670.577 568.635 666.928C545.516 661.091 503.642 660.356 546.369 675.663C541.42 677.815 535.295 677.651 530.358 675.436ZM547.789 661.528C546.527 659.875 546.527 663.181 547.789 661.528V661.528ZM111.83 673.41C88.4796 672.24 65.619 642.343 71.8676 640.697C69.8981 622.573 61.4652 638.911 57.2452 610.145C42.7075 599.396 70.1822 587.462 31.5456 584.472C57.4905 590.784 81.0032 580.278 41.2399 578.91C29.3514 567.708 39.621 548.308 45.7175 572.34C68.6363 573.211 87.748 596.618 69.3269 569.226C20.1225 580.274 74.9177 512.981 29.2939 524.526C-2.54968 511.486 47.2037 418.334 17.1249 474.808C2.68677 501.737 18.7205 537.552 41.5555 541.29C42.6382 565.723 -3.41516 518.995 10.5242 501.623C21.103 472.843 7.84515 453.55 0.833679 431.564C5.64996 407.556 12.4844 438.304 25.0518 450.211C34.6202 448.445 0.55481 405.885 31.5002 434.672C54.0435 461.133 -2.47742 502.056 39.1887 520.059C52.7007 520.961 58.1615 500.094 60.3234 500.943C68.2484 504.055 64.9684 502.336 63.3398 513.183C47.0172 533.198 46.0477 584.552 76.6733 562.237C72.3684 574.277 98.7206 569.823 82.2318 593.493C85.9656 612.539 104.044 543.709 95.5157 586.72C94.9183 621.134 107.348 547.907 108.131 586.323C103.759 604.379 127.333 557.424 115.491 590.011C115.296 603.085 136.446 656.556 145.093 631.674C137.705 624.28 112.295 592.997 155.476 603.106C185.876 587.317 160.585 648.412 156.927 662.166C137.399 680.583 88.1172 653.938 88.546 654.629C90.4581 672.578 145.278 665.319 111.83 673.41ZM134.811 664.074C124.985 655.064 72.8519 643.865 112.478 659.768C123.061 655.618 128.026 664.463 134.811 664.074ZM151.941 661.262C175.853 637.415 123.266 672.257 151.941 661.262V661.262ZM126.703 636.809C132.315 629.913 96.2381 621.12 126.703 636.809V636.809ZM121.193 624.473C117.977 584.346 104.558 618.723 121.193 624.473V624.473ZM78.2614 625.884C74.3975 622.512 74.3975 629.256 78.2614 625.884V625.884ZM66.7542 603.202C64.4406 575.674 62.39 603.456 66.7542 603.202V603.202ZM75.6164 600.268C75.8599 576.337 61.8126 600.04 75.6164 600.268V600.268ZM108.041 594.869C106.779 593.216 106.779 596.523 108.041 594.869V594.869ZM90.0842 672.538C99.7241 678.871 90.5437 667.586 90.0842 672.538V672.538ZM78.9672 661.314C84.047 670.829 77.6667 653.994 78.9672 661.314V661.314ZM487.379 649.131C493.843 646.74 486.18 648.374 487.379 649.131V649.131ZM533.941 640.621C520.106 633.512 575.531 635.811 540.145 641.521L533.941 640.621ZM68.3347 636.068C70.8001 639.356 69.5042 632.705 68.3347 636.068V636.068ZM-5.41711 603.345C-46.6368 579.064 -55.5733 530.66 -68.5337 491.643C-69.2727 463.248 -50.8922 418.388 -16.7391 414.216C-19.4448 402.328 37.5344 398.795 26.231 392.013C70.24 385.351 113.894 401.623 155.712 410.452C195.982 434.745 190.937 477.422 199.495 513.545C213.924 532.503 231.562 574.972 204.394 535.155C177.289 513.575 187.92 478.84 180.504 451.314C178.825 429.149 153.826 436.313 133.046 420.354C84.995 404.246 30.678 406.782 -18.3517 419.018C-58.3892 441.162 -68.1013 493.639 -48.8706 529.018C-37.9187 555.602 -34.6587 560.199 -16.0426 585.727C-9.99414 594.144 31.3521 612.076 -5.41711 603.345ZM-7.91388 596.552C-8.27466 598.313 -12.2917 595.275 -7.91388 596.552V596.552ZM197.38 513.398C196.118 511.745 196.118 515.051 197.38 513.398V513.398ZM-6.56152 412.108C11.9978 410.613 43.9753 396.759 6.78973 406.061C5.53735 401.715 -18.278 413.95 -6.56152 412.108ZM41.8638 405.849C37.0756 400.015 28.5054 408.439 41.8638 405.849V405.849ZM41.8358 399.393C40.3693 392.294 30.7051 401.64 41.8358 399.393V399.393ZM51.4584 395.356C51.9913 398.786 43.3196 392.248 51.4584 395.356V395.356ZM15.7227 605.053C16.9849 603.4 16.9849 606.707 15.7227 605.053V605.053ZM16.7153 597.818C66.6055 611.649 -27.4861 567.602 16.7153 597.818V597.818ZM20.355 596.567C20.0779 598.534 17.4684 595.232 20.355 596.567V596.567ZM139.309 595.371C92.8476 579.638 177.645 603.662 167.396 570.119C204.184 536.086 164.906 603.269 139.309 595.371ZM168.261 575.273C167.984 577.24 165.375 573.939 168.261 575.273V575.273ZM29.1237 591.629C36.1484 595.06 32.6083 588.037 29.1237 591.629V591.629ZM26.642 591.166C27.9042 589.513 27.9042 592.82 26.642 591.166V591.166ZM-9.76996 582.639C13.7471 599.123 -33.6138 551.702 -9.76996 582.639V582.639ZM132.325 583.821C118.972 577.492 166.685 579.457 161.604 558.337C200.194 542.144 153.694 568.818 151.815 585.102L142.748 585.733L132.325 583.821ZM188.694 584.565C207.135 586.019 183.549 577.961 188.694 584.565V584.565ZM27.6346 581.445C30.1582 578.138 30.1582 584.753 27.6346 581.445V581.445ZM12.7448 577.616C28.4946 582.489 -12.2909 533.226 12.7448 577.616V577.616ZM202.551 578.71C223.953 574.932 144.257 572.706 202.551 578.71V578.71ZM178.519 579.131C179.781 577.478 179.781 580.784 178.519 579.131V579.131ZM-1.10284 572.418C-28.7717 558.754 -33.6649 543.947 -30.0153 517.564C-28.3166 499.822 -64.4966 441.68 -28.0657 482.091C-16.7516 507.284 -38.3448 554.789 -8.06445 565.264C-3.63995 564.087 14.6508 583.701 -1.10284 572.418ZM129.466 574.165C140.128 556.676 155.559 544.435 141.83 573.113C138.044 574.682 133.549 575.812 129.466 574.165ZM21.6786 563.885C-1.7085 540.598 -16.1541 512.177 -0.627808 477.608C-11.3729 467.72 -27.3826 419.718 -4.66852 425.677C-4.19727 456.401 18.1985 478.076 3.47894 513.861C-11.2274 540.969 44.7521 552.305 23.5219 570.76L21.6786 563.885ZM111.762 571.574C117.222 570.094 112.737 573.189 111.762 571.574V571.574ZM123.487 567.789C121.287 544.365 126.546 529.204 136.808 513.039C135.432 482.434 112.446 468.944 122.196 443.447C87.136 400.149 163.412 438.761 138.101 465.867C149.578 499.76 146.865 525.524 128.397 552.745C128.012 565.07 142.828 554.281 123.487 567.789ZM198.155 567.497C221.005 572.819 176.63 558.455 198.155 567.497V567.497ZM115.278 565.017C105.424 534.55 122.922 514.285 112.44 486.793C106.642 464.062 84.4677 460.622 107.131 447.997C88.4678 434.371 99.1301 402.877 108.234 435.353C133.288 457.536 96.0822 466.995 125.798 489.937C135.259 513.09 115.462 526.042 115.982 545.717C120.679 549.153 121.15 577.143 115.278 565.017ZM129.383 503.677C128.214 500.314 126.918 506.964 129.383 503.677V503.677ZM95.592 566.57C100.349 570.443 94.4073 561.642 95.592 566.57V566.57ZM130.872 564.317C132.135 562.664 132.135 565.97 130.872 564.317V564.317ZM83.2245 562.017C102.933 532.315 56.9163 539.014 86.5365 513.551C99.2513 489.72 65.9655 476.501 54.7918 484C53.6006 464.127 82.5883 445.711 51.8943 421.845C64.6005 416.271 85.6088 449.668 70.6024 462.622C89.4074 482.17 100.18 503.408 88.9108 528.08C95.4133 535.257 101.884 568.197 83.2245 562.017ZM90.1732 508.768C88.9109 507.115 88.9109 510.422 90.1732 508.768V508.768ZM86.2026 479.142C84.9403 477.489 84.9403 480.795 86.2026 479.142V479.142ZM206.627 561.841C230.764 562.052 161.61 551.964 206.627 561.841V561.841ZM105.674 559.539C90.6995 539.045 99.8491 516.441 99.126 493.493C96.9361 470.434 68.4722 461.924 82.7343 439.873C45.5787 420.837 95.2784 406.394 92.2791 434.369C117.409 452.769 66.7156 454.872 98.3385 471.289C119.032 501.765 103.813 517.777 106.164 549.275C110.901 552.371 112.54 568.687 105.674 559.539ZM59.6489 560.217C46.0651 539.923 93.4697 502.25 60.7433 491.966C103.314 489.571 62.5023 531.02 68.5468 550.193C81.2028 535.188 91.9229 541.993 71.9904 552.823C70.1283 554.451 64.5741 563.902 59.6489 560.217ZM-3.9939 558.346C-38.5326 533.639 -2.54236 484.135 -38.5979 456.639C-38.8212 424.762 -15.2902 433.426 -18.4378 462.324C13.7332 481.39 -30.0468 522.653 -8.40991 550.55C-5.86285 552.349 11.3087 564.878 -3.9939 558.346ZM341.456 556.124C369.66 559.326 333.798 540.256 341.456 556.124V556.124ZM343.301 554.133C342.04 552.48 342.04 555.786 343.301 554.133V554.133ZM229.61 554.503C248.77 544.819 215.438 506.065 229.61 554.503V554.503ZM37.066 555.522C40.6739 552.034 38.2485 559.125 37.066 555.522V555.522ZM132.858 554.596C135.323 551.308 134.027 557.959 132.858 554.596V554.596ZM267.007 550.04C266.013 505.364 342.005 525.029 343.966 481.867C343.43 454.827 374.758 456.441 351.175 479.07C351.75 509.764 327.615 519.672 296.834 522.209C293.297 528.591 269.161 566.48 267.007 550.04ZM252.415 553.264C237.669 522.755 286.991 521.201 262.648 549.445L256.385 554.528L252.415 553.264ZM239.175 548.347C258.229 566.327 234.854 498.397 239.175 548.347V548.347ZM191.826 548.513C173.315 540.627 130.547 553.739 168.602 537.185C184.452 531.844 206.98 541.205 200.512 551.216L191.826 548.513ZM361.169 549.141C394.577 547.005 413.269 497.613 417.933 492.729C394.615 492.427 392.169 538.76 380.883 534.371C379.927 494.506 421.515 472.234 461.783 495.058C480.474 494.879 540.769 489.116 488.904 501.533C442.469 482.86 412.46 508.253 391.509 540.708C383.241 546.492 370.49 548.99 361.169 549.141ZM135.408 546.853C159.941 524.976 148.24 495.157 144.143 465.643C149.733 447.315 131.247 423.585 162.905 444.868C160.195 466.408 157.752 509.329 160.719 519.646C186.57 508.71 147.38 479.373 171.386 462.974C175.171 444.331 176.669 507.812 173.088 518.302C146.28 542.194 201.748 507.074 178.517 531.914C155.557 515.706 152.454 553.288 135.408 546.853ZM172.977 507.71C174.331 501.22 168.462 513.247 172.977 507.71V507.71ZM324.837 547.256C291.683 541.123 381.054 537.61 369.665 507.611C356.44 480.859 408.535 463.482 409.477 479.071C371.048 501.453 388.571 542.026 324.837 547.256ZM286.07 546.422C296.785 510.397 364.263 530.712 354.372 482.382C369.319 450.603 391.71 474.638 366.197 494.317C356.929 526.606 314.943 536.59 285.325 548.042L286.07 546.422ZM191.894 537.89C205.631 547.491 192.379 520.9 191.894 537.89V537.89ZM-44.4024 520.572C-57.2677 499.529 -51.3979 507.412 -40.8579 512.448C-60.9681 496.421 -46.6273 473.789 -36.9213 503.173C-37.0901 507.427 -34.0514 541.757 -44.4024 520.572ZM604.22 521.126C616.46 526.289 601.044 510.108 604.22 521.126V521.126ZM212.838 521.663C228.433 525.997 209.756 508.602 212.838 521.663V521.663ZM617.955 518.899C594.267 486.878 540.356 488.811 503.238 482.89C561.296 480.42 476.714 472.804 464.406 471.203C509.146 494.075 421.427 459.631 403.541 468.1C369.493 459.452 338.821 450.44 357.239 413.917C356.911 387.678 439.374 438.826 387.659 417.72C355.024 422.506 461.59 439.745 407.264 434.112C361.423 426.205 431.844 449.86 445.798 443.035C429.668 457.47 353.196 427.226 404.847 449.83C448.615 467.413 341.448 434.114 396.043 455.921C431.661 456.676 469.704 468.057 504.234 470.368C519.873 476.375 569.419 473.152 534.653 480.21C578.561 484.65 595.034 491.33 621.014 510.736C623.845 512.177 623.409 530.044 617.955 518.899ZM446.042 464.791C439.139 457.875 432.775 467.251 446.042 464.791V464.791ZM224.265 520.698C243.369 525.408 229.895 517.48 224.265 520.698V520.698ZM244.366 519.724C246.517 520.044 242.786 522.412 244.366 519.724V519.724ZM248.006 519.461C260.513 522.281 252.805 512.875 248.006 519.461V519.461ZM240.396 519.724C243.282 518.389 240.673 521.691 240.396 519.724V519.724ZM256.692 517.876C262.152 516.397 257.666 519.491 256.692 517.876V517.876ZM185.469 518.026C186.731 516.373 186.731 519.679 185.469 518.026V518.026ZM224.182 513.397C238.059 509.083 230.808 517.423 224.182 513.397V513.397ZM215.676 513.757C226.216 519.581 218.517 505.602 215.676 513.757V513.757ZM273.091 513.301C276.981 511.429 274.042 515.348 273.091 513.301V513.301ZM563.038 508.586C551.569 493.332 508.044 491.57 550.271 495.406C571.813 494.843 609.394 520.45 563.038 508.586ZM277.29 512.008C281.064 508.7 279.842 515.42 277.29 512.008V512.008ZM234.109 512.526C237.038 514.268 236.331 509.385 234.109 512.526V512.526ZM281.757 511.309C289.107 512.185 288.832 505.143 281.757 511.309V511.309ZM212.601 510.466C214.752 510.786 211.021 513.154 212.601 510.466V510.466ZM290.69 508.259C325.73 497.799 316.39 489.829 290.69 508.259V508.259ZM262.896 508.769C264.158 507.116 264.158 510.422 262.896 508.769V508.769ZM39.455 507.611C12.4937 481.197 70.5799 445.196 28.1393 419.553C61.925 420.864 63.3622 463.433 43.7513 484.371C44.5994 491.193 46.7963 491.616 50.2006 491.606C56.0565 491.586 60.0068 491.988 45.5034 508.241L44.0948 509.232L39.455 507.611ZM268.19 506.763C271.077 505.428 268.467 508.73 268.19 506.763V506.763ZM272.823 505.629C283.482 498.119 281.93 507.461 272.823 505.629V505.629ZM204.965 504.834C218.432 486.468 272.901 474.738 273.216 436.78C278.867 405.15 278.437 425.624 279.723 442.988C296.636 413.391 271.273 398.082 274.153 373.137C300.358 358.628 306.69 378.364 316.368 351.36C311.042 330.233 361.908 331.186 319.25 331.852C310.88 345.486 297.295 377.829 303.358 337.493C298.761 323.005 317.957 292.534 295.497 317.133C294.592 331.703 297.095 376.623 287.186 335.897C276.448 318.706 295.576 278.485 275.432 275C277.165 305.564 282.503 339.094 283.474 366.031C263.536 340.521 262.297 311.845 262.718 282.37C251.916 255.957 240.711 256.462 256.107 284.675C256.978 309.709 261.915 353.162 271.664 365.445C242.645 342.833 254.146 305.529 229.747 280.223C227.549 276.104 232.995 241.963 233.403 232.013C233.92 219.416 229.47 233.321 225.532 260.379C211.77 295.511 258.142 314.284 246.316 349.792C265.665 382.371 215.865 312.599 229.696 357.398C210.126 335.667 184.486 321.369 190.085 288.386C208.344 259.773 157 233.315 168.429 214.406C181.694 207.947 198.68 194.265 211.311 197.584C218.205 199.395 232.248 245.821 225.532 260.379C228.215 259.697 232.112 233.272 233.403 232.013C244.071 221.616 210.632 181.329 245.176 185.531C268.66 179.228 284.9 174.855 275.672 200.725C278.761 193.842 293.452 154.08 299.245 186.256C283.681 201.99 293.885 223.038 297.251 195.259C298.252 180.41 317.54 156.012 317.404 185.758C292.776 193.234 320.412 243.922 310.631 203.137C326.384 193.257 315.344 150.393 339.336 173.724C338.368 195.758 318.959 213.854 329.681 236.618C309.844 227.978 282.571 241.694 320.927 239.402C357.802 239.066 308.094 198.406 344.563 184.873C330.314 145.656 390.328 179.33 348.329 195.335C333.253 213.222 343.483 234.334 347.097 201.656C364.548 192.933 375.657 151.184 388.379 182.812C363.838 195.774 335.815 227.066 356.421 247.689C341.067 211.567 379.986 195.749 400.687 177.238C423.961 203.108 347.779 216.439 368.29 237.676C369.92 211.49 408.738 202.008 416.897 182.655C478.293 204.966 381.468 234.087 405.056 273.323C415.246 290.839 373.192 314.911 385.306 310.347C437.201 302.772 385.172 237.448 433.662 219.798C439.782 201.007 470.551 196.165 451.396 218.828C418.17 228.268 432.436 283.306 435.443 236.386C447.506 223.078 473.213 199.174 483.039 218.985C533.291 214.329 464.298 238.986 462.84 252.281C460.178 276.55 464.995 309.359 439.61 327.632C431.772 353.303 464.95 314.984 473.208 300.436C475.131 271.824 462.84 252.281 501.241 235.231C513.659 194.396 556.479 229.319 513.766 248.383C448.353 242.125 518.312 314.375 459.756 325.012C457.089 339.313 437.23 376.214 439.193 341.739C427.241 365.239 429.79 341.596 423.703 340.786C408.06 385.968 415.689 298.466 407.274 341.402C392.426 379.078 403.775 340.101 387.935 325.922C398.795 347.386 360.668 374.678 377.332 343.049C368.415 319.992 374.289 325.204 370.099 340.036C344.962 374.534 367.119 333.462 354.217 318.908C339.672 303.382 322.819 264.634 364.666 285.359C381.498 275.958 370.411 245.332 363.893 278.209C320.749 259.464 330.644 306.644 352.48 322.574C362.636 336.377 348.746 361.806 325.747 341.982C321.858 362.501 302.138 379.494 332.721 371.991C360.948 370.507 347.307 402.781 339.62 390.365C338.271 415.197 298.198 409.162 332.346 416.746C321.696 438.982 323.587 464.776 305.21 480.764C280.196 505.784 237.539 504.802 204.965 504.834ZM208.961 500.282C208.684 502.249 206.075 498.948 208.961 500.282V500.282ZM262.896 473.511C259.447 478.439 259.421 469.364 262.896 473.511V473.511ZM268.19 468.804C277.823 455.459 261.759 465.99 268.19 468.804V468.804ZM273.319 458.312C272.15 454.949 270.853 461.6 273.319 458.312V458.312ZM276.716 451.327C279.974 432.164 270.351 466.702 276.716 451.327V451.327ZM287.712 420.816C286.45 419.163 286.45 422.469 287.712 420.816V420.816ZM330.324 403.308C335.829 387.799 325.862 395.777 330.324 403.308V403.308ZM342.12 381.701C337.882 388.476 334.252 375.59 342.12 381.701V381.701ZM230.398 335.061C231.94 317 194.259 313.924 210.05 284.995C215.259 261.825 211.802 224.535 194.154 218.702C209.585 245.145 204.464 273.653 205.997 303.487C195.563 323.503 221.7 326.948 230.398 335.061ZM207.638 301.232C209.788 301.552 206.058 303.92 207.638 301.232V301.232ZM425.692 330.549C422.814 326.485 420.625 335.447 425.692 330.549V330.549ZM426.685 327.772C424.161 324.465 424.161 331.079 426.685 327.772V327.772ZM337.656 328.1C341.174 314.434 326.996 325.314 337.656 328.1V328.1ZM423.359 325.211C445.32 325.719 465.368 276.404 447.531 281.89C456.616 305.411 412.506 311.902 423.359 325.211ZM408.817 323.143C406.293 319.836 406.293 326.45 408.817 323.143V323.143ZM373.081 323.143C370.558 319.836 370.558 326.45 373.081 323.143V323.143ZM369.177 322.755C367.189 309.178 364.78 319.59 369.177 322.755V322.755ZM407.824 318.922C407.427 323.547 404.679 315.649 407.824 318.922V318.922ZM334.014 317.882C334.736 302.751 321.097 310.476 334.014 317.882V317.882ZM406.832 315.417C435.537 313.725 443.719 266.137 429.443 268.057C440.986 292.781 399.764 302.754 406.832 315.417ZM365.14 311.025C357.751 318.656 352.082 280.752 365.14 311.025V311.025ZM326.573 303.753C323.854 290.187 320.069 304.206 326.573 303.753V303.753ZM307.566 300.923C303.836 297.465 302.218 304.295 307.566 300.923V300.923ZM377.052 300.461C375.79 298.807 375.79 302.114 377.052 300.461V300.461ZM381.155 295.774C415.106 291.937 377.134 201.127 387.475 258.018C410.347 293.747 319.398 285.281 372.326 295.368L378.577 297.22L381.155 295.774ZM354.221 294.443C356.683 298.026 346.972 290.636 354.221 294.443V294.443ZM320.47 293.054C319.208 291.401 319.208 294.707 320.47 293.054V293.054ZM299.624 288.888C298.549 291.256 298.549 286.52 299.624 288.888V288.888ZM319.433 285.416C318.756 297.246 308.923 262.817 319.433 285.416V285.416ZM295.654 275.872C293.432 279.013 292.724 274.13 295.654 275.872V275.872ZM315.507 272.223C314.432 269.856 314.432 274.591 315.507 272.223V272.223ZM450.784 270.732C455.202 259.161 442.443 262.235 450.784 270.732V270.732ZM316.5 267.486C321.992 250.908 361.029 272.703 353.228 255.352C351.082 268.995 309.901 240.471 316.5 267.486ZM292.148 267.322C292.89 259.531 289.031 272.02 292.148 267.322V267.322ZM275.801 264.354C274.538 262.7 274.538 266.007 275.801 264.354V264.354ZM291.683 261.631C289.896 256.981 288.541 264.984 291.683 261.631V261.631ZM274.312 257.41C273.129 261.013 270.704 253.921 274.312 257.41V257.41ZM451.501 255.15C448.906 237.648 442.397 260.081 451.501 255.15V255.15ZM371.913 255.866C368.6 249.354 368.304 261.562 371.913 255.866V255.866ZM293.414 254.669C299.79 237.972 286.269 256.3 293.414 254.669V254.669ZM249.66 254.941C249.383 256.908 246.774 253.607 249.66 254.941V254.941ZM370.103 251.855C369.028 254.223 369.028 249.487 370.103 251.855V251.855ZM250.493 251.845C243.77 228.221 281.471 215.146 261.327 198.196C268.352 168.006 250.599 210.332 257.459 220.858C250.913 225.318 239.551 251.522 250.493 251.845ZM370.103 249.152C369.093 238.492 365.732 253.589 370.103 249.152V249.152ZM271.052 249.493C267.281 226.742 319.528 205.202 273.926 228.024C268.963 233.171 267.14 244.822 271.052 249.493ZM450.71 246.3C447.475 235.7 442.237 247.85 450.71 246.3V246.3ZM297.184 242.535C298.395 237.86 293.927 246.185 297.184 242.535V242.535ZM452.789 240.439C484.989 228.048 439.471 238.018 452.789 240.439V240.439ZM518.685 237.758C533.783 208.01 517.567 224.86 518.685 237.758V237.758ZM472.796 231.371C480.788 219.754 456.653 241.921 472.796 231.371V231.371ZM390.694 228.319C405.297 213.48 427.722 200.4 394.319 219.915C395.424 214.516 381.623 233.457 390.694 228.319ZM480.545 224.891C486.442 218.76 472.981 226.443 480.545 224.891V224.891ZM476.318 225.007C475.243 222.639 475.243 227.374 476.318 225.007V225.007ZM190.807 212.648C195.469 221.079 173.98 201.269 190.807 212.648V212.648ZM421.359 206.104C428.09 198.776 410.468 212.401 421.359 206.104V206.104ZM428.096 197.1C433.955 182.245 419.108 206.407 428.096 197.1V197.1ZM321.964 504.596C334.909 494.265 324.482 508.34 321.964 504.596V504.596ZM282.749 502.864C299.387 501.84 285.638 497.03 282.749 502.864V502.864ZM297.994 494.882C312.095 488.627 338.14 441.58 320.813 477.405C317.448 481.166 299.063 499.492 297.994 494.882ZM517.761 493.805C523.221 492.326 518.736 495.42 517.761 493.805V493.805ZM319.778 490.94C328.278 485.113 312.229 500.279 319.778 490.94V490.94ZM183.483 490.252C184.745 488.599 184.745 491.905 183.483 490.252V490.252ZM-73.6157 490.252C-72.3534 488.599 -72.3534 491.905 -73.6157 490.252V490.252ZM200.642 483.102C201.013 478.048 206.215 453.553 213.1 467.249C210.789 470.707 208.772 496.549 200.642 483.102ZM325.434 484.752C327.403 486.682 327.275 481.274 325.434 484.752V484.752ZM215.906 480.207C207.796 453.739 261.556 445.114 231.131 476.206C231.002 481.873 219.944 484.555 215.906 480.207ZM327.419 481.92C328.681 480.267 328.681 483.573 327.419 481.92V481.92ZM425.03 478.063C427.917 476.728 425.308 480.03 425.03 478.063V478.063ZM419.736 477.346C422.665 479.088 421.958 474.205 419.736 477.346V477.346ZM416.262 476.828C420.037 473.52 418.814 480.24 416.262 476.828V476.828ZM237.087 473.713C265.637 463.275 253.79 432.606 237.087 473.713V473.713ZM384.993 471.736C386.255 470.083 386.255 473.389 384.993 471.736V471.736ZM333.706 466.027C335.856 466.347 332.125 468.715 333.706 466.027V466.027ZM334.86 461.784C338.478 443.692 352.275 390.18 343.879 436.782C340.471 442.604 339.221 464.616 334.86 461.784ZM322.128 459.652C333.863 450.48 340.254 382.75 336.137 429.447C333.677 436.998 329.811 468.766 322.128 459.652ZM461.914 460.163C446.748 448.42 397.029 457.186 444.676 449.2C447.553 450.209 476.038 461.539 461.914 460.163ZM196.456 451.159C198.455 432.532 211.447 466.446 227.717 441.241C239.696 424.342 157.769 447.029 213.015 430.632C239.074 434.279 274.002 424.028 228.691 423.922C211.394 425.942 167.318 439.694 196.884 418.035C226.173 414.225 257.904 381.865 266.373 419.431C273.916 452.722 217.27 452.6 196.456 451.159ZM237.633 418.426C284.12 413.768 219.442 406.065 232.738 419.053L237.633 418.426ZM248.999 405.608C253.423 399.975 233.313 408.875 248.999 405.608V405.608ZM213.759 440.721C226.078 437.62 216.408 442.986 213.759 440.721V440.721ZM14.9585 420.527C29.858 414.726 17.7288 425.855 14.9585 420.527V420.527ZM-46.8138 419.891C-74.7605 410.339 -109.893 385.677 -62.1286 400.094C-49.7021 398.474 -38.4469 421.317 -46.8138 419.891ZM181.801 415.969C172.086 403.589 160.326 383.208 186.002 385.361C171.499 396.811 208.473 421.531 181.801 415.969ZM177.031 417.576C180.639 421.064 178.214 413.973 177.031 417.576V417.576ZM169.442 410.864C142.72 408.185 143.985 371.085 162.53 388.911C148.822 394.009 183.573 417.315 169.442 410.864ZM272.946 405.078C282.397 383.143 274.572 424.435 272.946 405.078V405.078ZM194.515 402.661C228.664 429.76 184.198 361.108 194.515 402.661V402.661ZM-39.2877 410.533C-41.3365 393.679 -105.447 384.513 -74.1121 379.37C-50.5599 381.197 -28.6688 404.581 -39.2877 410.533ZM337.345 408.318C339.811 405.03 338.515 411.681 337.345 408.318V408.318ZM346.981 406.477C350.876 401.517 346.982 412.576 346.981 406.477V406.477ZM212.788 401.318C232.81 416.769 209.192 385.485 212.788 401.318V401.318ZM-24.9753 404.615C-35.8924 391.092 -41.1554 377.725 -66.4739 375.696C-57.5707 366.358 -6.90894 376.909 -20.6404 396.86C-9.04291 398.183 -22.8107 405.531 -24.9753 404.615ZM346.776 402.763C351.653 399.409 349.429 406.311 346.776 402.763V402.763ZM264.881 401.728C268.486 400.167 266.306 405.987 264.881 401.728V401.728ZM353.227 397.714C362.666 394.831 347.16 401.927 353.227 397.714V397.714ZM139.048 397.317C109.029 382.795 111.52 364.491 138.874 388.689C139.468 389.688 148.092 400.742 139.048 397.317ZM-15.0487 393.363C15.9973 367.034 -85.7501 372.012 -25.5983 366.129C6.25012 362.312 14.2746 404.466 -15.0487 393.363ZM223.052 393.968C194.254 365.649 134.606 392.462 112.619 362.54C76.0467 352.52 34.408 347.845 -4.70276 354.735C-30.9838 361.608 -63.6129 367.329 -86.1752 370.122C-58.6634 347.554 -11.2134 353.076 11.8476 323.245C40.557 325.765 71.4276 303.804 83.7207 333.102C115.011 340.355 142.214 354.189 174.549 357.613C197.012 362.111 284.067 377.824 229.664 396.245L227.678 397.206L223.052 393.968ZM12.2493 395.356C17.1265 392.002 14.9025 398.904 12.2493 395.356V395.356ZM358.125 389.916C361.298 374.968 357.946 405.943 358.125 389.916V389.916ZM9.76782 393.968C11.0301 392.315 11.0301 395.621 9.76782 393.968V393.968ZM-80.5643 393.968C-79.302 392.315 -79.302 395.621 -80.5643 393.968V393.968ZM112.475 391.155C80.6315 383.907 96.9689 346.216 106.073 377.798C105.538 381.696 133.533 399.716 112.475 391.155ZM103.078 389.339C104.34 387.686 104.34 390.992 103.078 389.339V389.339ZM89.1912 388.031C75.4833 381.015 50.3983 346.755 84.4435 365.399C79.9734 375.054 115.795 395.871 89.1912 388.031ZM10.7603 385.867C14.1458 368.868 -30.6042 360.326 5.64105 360.339C12.3937 370.226 43.3319 382.886 10.7603 385.867ZM65.545 383.101C46.0776 376.704 39.8156 344.222 59.2228 363.588C57.7365 371.601 93.5929 390.652 65.545 383.101ZM30.1312 383.552C37.5935 366.937 -7.02832 355.301 34.5843 357.481C36.6875 372.21 71.7384 386.24 30.1312 383.552ZM357.513 373.889C359.445 374.351 356.041 377.923 357.513 373.889V373.889ZM112.756 374.375C118.216 372.896 113.731 375.99 112.756 374.375V374.375ZM113.997 371.285C116.463 367.998 115.166 374.648 113.997 371.285V371.285ZM333.871 369.434C310.4 349.395 367.478 345.597 336.879 361.965C335.288 362.442 338.126 373.59 333.871 369.434ZM255.947 369.335C266.322 372.035 265.302 365.418 255.947 369.335V369.335ZM251.315 368.817C253.465 369.137 249.735 371.505 251.315 368.817V368.817ZM346.528 368.85C348.012 358.484 385.306 357.567 350.44 369.421L346.528 368.85ZM244.035 366.194C245.298 364.54 245.298 367.847 244.035 366.194V366.194ZM238.079 364.342C239.342 362.689 239.342 365.995 238.079 364.342V364.342ZM344.294 363.416C345.556 361.763 345.556 365.069 344.294 363.416V363.416ZM235.102 359.658C238.243 356.304 236.889 364.308 235.102 359.658V359.658ZM216.572 358.633C219.459 357.298 216.849 360.6 216.572 358.633V358.633ZM207.803 355.927C182.383 338.159 142.875 331.833 159.944 293.517C176.483 269.318 105.316 227.533 139.049 225.007C130.513 241.78 172.996 271.754 175.043 270.352C177.493 248.205 116.645 228.961 159.658 219.79C179.637 251.442 190.352 284.866 187.932 321.052C183.466 332.233 229.871 353.286 207.803 355.927ZM183.855 331.663C161.017 322.066 182.998 249.634 170.035 294.23C166.156 307.328 161.306 332.751 183.855 331.663ZM182.491 351.842C122.963 359.498 149.84 301.1 131.382 272.223C102.36 271.554 108.366 233.343 93.8244 231.112C122.171 219.343 121.229 288.223 122.11 240.535C97.3281 221.656 135.493 218.836 127.314 243.986C165.533 268.092 142.109 313.724 162.637 342.585C169.699 339.953 197.949 353.599 182.491 351.842ZM453.487 352.573C461.888 325.572 517.235 311.327 489.791 274.075C483.91 247.313 554.211 260.73 542.852 221.086C577.611 241.863 527.921 257.582 506.335 272.686C487.391 285.942 521.98 298.49 514.896 278.868C551.538 263.813 579.993 266.275 582.036 230.396C597.033 269.708 522.093 270.169 520.217 306.754C510.555 270.652 514.561 337.636 481.168 333.273C468.53 336.601 469.872 357.405 453.487 352.573ZM553.386 351.381C577.144 336.716 611.023 346.676 630.863 323.487C688.287 310.658 603.178 349.016 586.291 346.833C572.662 340.117 564.142 355.101 553.386 351.381ZM525.454 345.353C554.448 339.807 588.048 312.564 622.898 308.394C641.252 305.842 675.323 285.46 646.656 311.048C603.472 320.968 570.309 344.137 525.454 345.353ZM525.901 338.395C547.32 318.532 591.861 290.269 631.604 288.763C679.903 260.325 627.912 314.331 600.88 302.24C577.569 316.41 551.459 330.522 525.901 338.395ZM541.833 338.419C543.095 336.766 543.095 340.073 541.833 338.419V338.419ZM132.087 336.622C122.612 304.505 100.13 277.627 84.5629 251.993C32.8875 243.826 122.44 230.603 98.8282 265.87C130.416 279.892 136.703 307.05 133.408 338.038L132.985 338.493L132.087 336.622ZM506.715 333.001C514.108 316.512 547.026 301.258 562.93 286.64C592.683 289.654 611.26 256.634 622.239 249.394C636.665 263.589 585.7 293.269 628.036 270.133C660.173 254.638 609.201 299.12 589.249 288.383C564.106 307.578 533.497 320.564 506.715 333.001ZM583.194 289.197C582.917 291.164 580.307 287.863 583.194 289.197V289.197ZM120.946 332.865C122.208 331.211 122.208 334.518 120.946 332.865V332.865ZM118.96 331.013C120.223 329.36 120.223 332.666 118.96 331.013V331.013ZM101.093 329.092C69.7949 310.808 44.753 289.45 13.5516 270.132C-14.1958 233.864 59.3669 303.554 36.6206 271.41C-7.90765 238.763 69.2827 275.363 59.7009 298.872C78.0085 300.655 103.185 318.796 101.093 329.092ZM115.017 328.267C122.478 333.324 111.755 320.452 115.017 328.267V328.267ZM666.894 324.567C678.099 302.414 672.426 331.963 666.894 324.567V324.567ZM108.963 321.07C98.2198 297.987 58.9556 298.374 62.8976 270.372C46.9577 265.393 19.9554 242.557 54.4371 262.142C74.4691 263.058 87.0426 310.397 81.2388 269.447C71.9578 255.714 32.8839 246.621 74.3604 257.297C95.0047 266.862 104.537 302.74 112.948 324.069L108.963 321.07ZM91.1659 289.814C86.7931 284.406 82.9286 293.733 91.1659 289.814V289.814ZM540.841 320.829C542.102 319.176 542.102 322.482 540.841 320.829V320.829ZM657.455 318.867C664.48 315.581 653.908 323.547 657.455 318.867V318.867ZM21.5612 309.256C-2.97107 314.225 -34.0358 272.384 -13.0634 274.484C-18.7045 304.938 22.5114 296.512 41.533 312.375C33.1284 314.724 28.0301 314.356 21.5612 309.256ZM42.5255 306.479C45.049 303.172 45.049 309.786 42.5255 306.479V306.479ZM672.223 301.618C671.717 278.504 654.624 259.699 640.625 249.661C616.753 226.131 624.658 228.819 647.589 246.532C664.652 248.969 686.621 313.068 672.223 301.618ZM532.62 299.072C537.947 271.574 595.202 270.042 589.907 234.845C614.012 233.616 559.282 287.652 593.108 254.228C616.128 209.932 619.192 275.893 581.767 276.831C563.064 274.685 542.958 302.512 532.62 299.072ZM338.338 300.46C339.6 298.807 339.6 302.113 338.338 300.46V300.46ZM33.3684 296.063C9.42535 296.014 -13.6548 247.705 8.85376 279.304C9.07428 281.675 52.0434 297.359 33.3684 296.063ZM-4.89178 287.962C0.698975 294.753 -6.38623 281.184 -4.89178 287.962V287.962ZM-8.16534 284.226C2.88556 290.16 -19.387 264.988 -8.16534 284.226V284.226ZM-21.4047 266.143C-8.14709 250.485 -23.4363 276.868 -21.4047 266.143V266.143ZM-11.4214 257.641C17.3614 229.374 -1.7887 259.213 -11.4214 257.641V257.641ZM558.709 255.281C554.818 233.008 572.224 212.029 567.745 245.53C567.78 242.609 561.469 261.716 558.709 255.281ZM636.454 229.998C644.761 239.123 636.373 222.69 636.454 229.998V229.998ZM625.007 224.719C650.623 233.887 608.434 213.758 625.007 224.719V224.719ZM607.101 225.289C624.263 229.528 599.276 218.708 607.101 225.289V225.289ZM595.043 221.766C608.859 221.077 548.095 212.039 595.043 221.766V221.766ZM615.29 218.989C616.552 217.336 616.552 220.642 615.29 218.989V218.989ZM538.979 210.541C557.963 212.276 528.639 204.18 538.979 210.541V210.541ZM488.23 205.564C492.005 208.873 490.782 202.153 488.23 205.564V205.564ZM431.152 178.869C456.38 192.276 424.607 170.508 431.152 178.869V178.869ZM422.644 175.397C432.737 180.994 421.436 170.035 422.644 175.397V175.397ZM271.079 166.467C300.503 153.015 297.322 167.323 271.079 166.467V166.467ZM47.4888 906.406C44.9653 903.099 44.9653 909.713 47.4888 906.406V906.406ZM49.4741 899.408C49.0775 904.033 46.3284 896.135 49.4741 899.408V899.408ZM52.204 896.535C56.2068 891.605 46.4521 897.839 52.204 896.535V896.535ZM56.4228 886.964C53.8992 883.657 53.8992 890.271 56.4228 886.964V886.964ZM-37.5945 847.976C-38.2568 852.596 -53.2711 842.318 -37.5945 847.976V847.976ZM-16.8479 847.447C-17.2081 849.209 -21.2255 846.171 -16.8479 847.447V847.447ZM355.213 845.765C353.952 844.112 353.952 847.418 355.213 845.765V845.765ZM-28.4496 797.468C-5.59778 787.599 -38.687 796.775 -28.4496 797.468V797.468ZM-20.012 792.068C-21.2743 790.415 -21.2743 793.721 -20.012 792.068V792.068ZM62.379 227.178C77.6697 217.634 147.037 205.226 92.8416 213.46C86.1923 214.47 56.297 224.539 62.379 227.178ZM642.057 217.661C631.968 206.147 575.162 181.767 567.725 187.974C592.315 196.559 619.892 212.729 642.057 217.661ZM48.6923 216.169C84.3387 206.077 39.1357 213.094 48.6923 216.169V216.169ZM127.894 210.034C148.724 207.731 221.898 173.355 164.631 194.448C159.071 198.028 102.719 212.227 127.894 210.034ZM39.092 208.28C37.4835 200.469 31.5024 214.486 39.092 208.28V208.28ZM633.158 203.159C621.391 187.874 534.964 163.377 596.911 175.013C635.93 197.196 587.949 154.844 566.363 162.883C544.79 150.602 503.721 161.341 550.742 165.667C568.601 177.247 590.495 188.216 620.75 200.058C624.027 197.757 630.448 208.575 633.158 203.159ZM57.9117 202.787C53.9393 198.633 50.7304 207.968 57.9117 202.787V202.787ZM64.364 201.566C71.0433 197.646 51.6494 203.327 64.364 201.566V201.566ZM47.9399 194.386C61.7869 184.433 74.0153 162.741 90.9177 150.759C107.232 130.567 146.896 132.506 129.436 109.382C111.364 92.7936 135.483 71.0311 151.901 95.5906C149.277 110.953 123.133 128.802 160.033 116.708C178.666 109.841 132.98 122.04 155.171 103.868C147.574 77.822 186.933 98.6648 168.825 113.222C197.978 108.595 196.423 105.077 173.56 107.427C187.655 91.1848 215.144 114.946 238.374 100.087C265.439 99.0429 287.326 101.722 256.31 82.2301C239.77 70.0883 193.96 35.836 232.566 68.5437C262.514 84.6517 265.146 99.9549 231.38 97.7928C217.771 94.8881 154.845 70.881 200.04 90.858C245.646 112.027 165.476 91.3418 150.521 82.5706C130.33 76.7571 63.3761 79.9751 118.326 71.9207C168.302 64.9282 89.9468 71.4338 74.586 71.0256C34.8879 64.4662 -10.7511 51.8211 -48.0518 71.6671C-104.388 97.5707 -17.9885 59.984 0.472046 65.6735C24.2764 61.7501 91.927 81.007 30.356 71.2251C-12.3427 67.6275 -52.468 81.6387 -88.5026 98.231C-118.942 108.08 -122.897 141.564 -110.589 154.29C-151.002 147.093 -134.034 115.144 -123.434 98.1699C-134.948 116.903 -150.309 116.724 -133.935 97.2441C-111.02 82.1653 -93.6284 73.7729 -109.459 70.5557C-80.4717 60.6778 -103.245 51.1526 -69.6425 47.3125C-115.787 51.2722 -71.1025 37.6904 -57.0234 32.2171C-101.95 42.5296 -67.6486 20.7765 -43.8333 20.0956C-98.5226 29.7757 -32.5795 -5.53091 -9.99927 4.15147C-56.9452 -13.73 -90.3246 30.17 -112.271 59.4093C-138.762 73.6138 -155.273 105.6 -142.715 132.714C-127.102 159.291 -77.348 182.497 -38.4846 170.098C-44.0171 165.332 -109.261 165.349 -88.713 157.638C-47.4041 156.408 -12.3859 170.584 25.9011 177.088C39.36 187.768 52.9772 186.731 47.9399 194.386ZM33.6311 177.281C6.3244 163.345 -27.6005 164.363 -57.2477 151.271C-93.7687 174.605 -131.861 95.7168 -92.4763 138.253C-62.1889 158.036 -33.9808 138.16 -5.39795 158.37C19.3095 145.622 49.5941 172.812 48.9779 181.017L42.1472 181.828L33.6311 177.281ZM50.8453 170.384C34.2568 143.195 -12.165 151.168 -37.8799 136.727C-76.5928 158.154 -118.29 88.9406 -70.3716 102.838C-44.9796 140.522 17.864 128.753 50.4854 153.773C51.5446 162.589 83.0112 173.964 50.8453 170.384ZM71.3126 159.682C53.9428 159.411 41.2238 117.716 4.96326 134.53C-21.2726 131.863 -90.4566 91.0737 -35.2148 85.3786C-36.6207 105.637 -5.08606 139.578 6.52087 122.59C-27.6109 124.278 -30.2585 48.0259 -13.3499 96.7813C5.88763 126.34 60.4676 120.362 75.2836 151.396C65.2165 106.827 -13.9868 126.843 -12.8253 78.9007C7.65668 56.6176 26.045 108.532 19.2186 75.8331C44.4487 77.8821 39.7608 119.04 73.6559 124.529C93.1591 137.78 90.9288 155.846 71.3126 159.682ZM33.8592 106.262C23.1148 98.1812 -24.4843 81.8479 12.0377 103.792C19.1793 102.233 26.8042 109.209 33.8592 106.262ZM92.6759 139.6C82.8317 121.888 17.3387 87.2478 48.7144 79.098C44.3794 96.0895 86.3397 119.079 57.2156 90.6231C53.9027 44.9134 98.9075 148.782 82.1031 101.322C64.2319 77.8129 93.4969 77.2601 89.7966 101.41C97.2798 111.965 118.079 144.327 92.6759 139.6ZM108.893 126.397C101.156 110.817 74.8557 72.3984 117.531 84.6652C127.356 91.7403 128.519 144.774 108.893 126.397ZM144.77 116.337C149.258 117.618 147.4 111.358 144.77 116.337V116.337ZM88.1879 77.3392C89.4501 75.6855 89.4501 78.9929 88.1879 77.3392V77.3392ZM-116.962 77.1849C-114.075 75.8506 -116.685 79.1522 -116.962 77.1849V77.1849ZM67.8384 75.5203C88.7616 80.3591 66.5708 70.917 67.8384 75.5203V75.5203ZM-121.707 66.6133C-117.11 64.9039 -121.495 71.0592 -121.707 66.6133V66.6133ZM72.7946 185.207C70.1347 183.661 69.9271 188.09 72.7946 185.207V185.207ZM76.4622 184.564C76.102 186.326 72.0844 183.288 76.4622 184.564V184.564ZM98.1145 177.79C94.3845 174.332 92.7671 181.162 98.1145 177.79V177.79ZM445.238 167.973C452.537 172.696 432.847 164.043 445.238 167.973V167.973ZM436.611 164.366C435.35 162.713 435.35 166.019 436.611 164.366V164.366ZM434.099 162.098C418.81 150.051 418.561 159.383 434.099 162.098V162.098ZM582.009 160.241C566.168 139.553 466.537 136.853 541.025 149.167C554.663 152.37 567.833 160.505 582.009 160.241ZM399.883 160.381C392.314 154.516 388.193 162.232 399.883 160.381V160.381ZM382.015 155.571C377.103 152.086 375.137 158.986 382.015 155.571V155.571ZM419.725 153.95C403.403 142.443 399.18 154.379 419.725 153.95V153.95ZM375.066 153.719C373.518 156.99 360.697 150.71 375.066 153.719V153.719ZM355.75 153.657C356.934 148.729 350.994 157.53 355.75 153.657V153.657ZM443.064 152.793C440.511 156.205 439.289 149.485 443.064 152.793V152.793ZM360.177 152.822C356.328 155.832 356.176 151.183 360.177 152.822V152.822ZM400.876 147.238C395.963 150.723 393.998 143.823 400.876 147.238V147.238ZM106.056 144.924C104.794 143.271 104.794 146.577 106.056 144.924V144.924ZM504.938 140.152C493.859 133.595 485.661 142.928 504.938 140.152V140.152ZM490.877 139.214C490.6 141.182 487.99 137.88 490.877 139.214V139.214ZM508.083 138.443C506.821 136.79 506.821 140.096 508.083 138.443V138.443ZM483.929 137.517C462.523 129.169 456.838 139.952 483.929 137.517V137.517ZM462.421 134.331C460.746 127.689 450.225 139.834 462.421 134.331V134.331ZM446.042 130.573C442.178 127.202 442.178 133.945 446.042 130.573V130.573ZM440.358 127.191C440.203 133.667 420.062 121.096 440.358 127.191V127.191ZM427.512 124.094C404.237 109.221 380.794 110.533 417.894 121.938C420.306 121.734 426.705 126.576 427.512 124.094ZM-125.482 118.33C-106.994 104.407 -96.3318 86.685 -123.682 108.776C-128.259 104.652 -133.64 123.09 -125.482 118.33ZM389.956 110.206C387.433 106.898 387.433 113.513 389.956 110.206V110.206ZM386.447 110.259C380.573 103.843 375.651 110.144 386.447 110.259V110.259ZM379.368 107.737C367.277 98.6611 322.812 100.381 367.489 106.593C371.27 105.975 375.79 110.03 379.368 107.737ZM341.812 101.159C341.064 91.369 237.306 98.0739 302.851 98.361C315.74 98.788 328.921 99.8242 341.812 101.159ZM234.571 92.6664C235.843 84.8031 222.541 94.3249 234.571 92.6664V92.6664ZM-102.723 89.1931C-89.7476 80.9798 -119.773 91.0619 -102.723 89.1931V89.1931ZM247.013 87.938C241.146 90.0478 235.843 80.2649 247.013 87.938V87.938ZM224.43 85.5213C223.456 87.1356 218.97 84.0421 224.43 85.5213V85.5213ZM218.723 83.357C222.497 86.645 204.718 79.5198 218.723 83.357V83.357ZM234.605 82.4312C233.436 85.7942 232.139 79.1435 234.605 82.4312V82.4312ZM187.94 75.0098C170.938 63.5487 168.216 80.1161 187.94 75.0098V75.0098ZM141.792 72.2472C140.716 69.8795 140.716 74.6149 141.792 72.2472V72.2472ZM144.439 71.63C144.161 73.5972 141.552 70.2956 144.439 71.63V71.63ZM85.2926 69.098C115.551 68.1902 125.835 58.7097 89.6769 65.7108C75.3959 64.9365 71.2763 67.091 85.2926 69.098ZM71.3126 65.7665C68.7601 69.1784 67.5377 62.4581 71.3126 65.7665V65.7665ZM62.5349 63.9874C38.1147 64.2635 35.9875 54.4359 62.5349 63.9874V63.9874ZM129.383 62.9891C117.581 59.5431 117.581 66.4351 129.383 62.9891V62.9891ZM35.577 58.2134C38.295 62.9451 17.1473 53.4702 35.577 58.2134V58.2134ZM23.1686 56.5084C16.647 53.0864 16.647 59.9303 23.1686 56.5084V56.5084ZM213.263 49.1451C202.947 50.4015 187.581 25.4621 213.263 49.1451V49.1451ZM197.881 39.8372C179.001 29.7747 117.089 23.3652 167.715 35.3629C178.168 30.4491 188.523 42.0285 197.881 39.8372ZM142.784 25.1062C133.842 16.129 127.699 23.5347 142.784 25.1062V25.1062ZM130.541 18.8586C130.264 20.8258 127.655 17.5242 130.541 18.8586V18.8586ZM123.924 15.7963C109.778 17.227 100.533 2.58492 123.924 15.7963V15.7963ZM107.048 10.2818C74.9557 5.50656 35.168 -4.0709 4.32678 3.76502C38.6569 4.49226 73.0765 7.76629 107.048 10.2818ZM-5.12213 4.2989C-8.97089 1.28877 -9.12256 5.93872 -5.12213 4.2989V4.2989Z" fill="#2C4CA4"/>
</g>
</g>
</svg>
